<?xml version="1.0" encoding="iso-8859-1"?>
<!-- Generator: Adobe Illustrator 19.0.0, SVG Export Plug-In . SVG Version: 6.00 Build 0)  -->
<svg version="1.1" id="Capa_1" xmlns="http://www.w3.org/2000/svg" xmlns:xlink="http://www.w3.org/1999/xlink" x="0px" y="0px"
	 viewBox="0 0 330.947 330.947" style="enable-background:new 0 0 330.947 330.947;" xml:space="preserve">
<g transform="translate(1 1)">
	<g>
		<path style="fill:#FFE100;" d="M296.87,158.935c-3.034,0-5.495-2.46-5.495-5.495c0-3.565-0.122-7.152-0.363-10.663
			c-0.207-3.028,2.08-5.65,5.107-5.858c3.014-0.209,5.649,2.079,5.858,5.106c0.257,3.759,0.388,7.599,0.388,11.414
			C302.365,156.475,299.904,158.935,296.87,158.935z"/>
		<path style="fill:#FFE100;" d="M294.059,129.298c-2.575,0-4.874-1.819-5.387-4.441c-0.091-0.463-0.184-0.925-0.279-1.385
			c-0.072-0.353-0.11-0.705-0.114-1.053c-0.14-0.319-0.251-0.656-0.329-1.008c-0.103-0.46-0.207-0.919-0.314-1.376
			c-0.082-0.352-0.129-0.705-0.142-1.053c-0.147-0.314-0.266-0.647-0.354-0.996c-0.115-0.457-0.231-0.913-0.35-1.367
			c-0.092-0.35-0.147-0.7-0.17-1.049c-0.155-0.31-0.283-0.64-0.38-0.987c-0.127-0.454-0.256-0.906-0.387-1.358
			c-0.1-0.346-0.165-0.694-0.197-1.039c-0.165-0.307-0.302-0.633-0.409-0.978c-0.14-0.452-0.282-0.902-0.425-1.351
			c-0.109-0.34-0.182-0.683-0.223-1.025c-0.173-0.303-0.319-0.626-0.436-0.968c-0.151-0.445-0.305-0.889-0.46-1.331
			c-0.12-0.339-0.202-0.682-0.253-1.025c-0.18-0.296-0.335-0.613-0.459-0.949c-0.164-0.441-0.33-0.88-0.497-1.317
			c-0.129-0.336-0.223-0.676-0.283-1.018c-0.189-0.292-0.354-0.606-0.489-0.941c-0.175-0.433-0.352-0.865-0.531-1.294
			c-0.139-0.332-0.242-0.67-0.312-1.01c-0.197-0.285-0.37-0.593-0.515-0.923c-0.188-0.43-0.379-0.858-0.571-1.284
			c-0.148-0.328-0.261-0.661-0.341-0.999c-0.204-0.279-0.385-0.58-0.539-0.904c-0.201-0.424-0.403-0.846-0.608-1.266
			c-0.157-0.323-0.281-0.653-0.37-0.987c-0.213-0.273-0.404-0.571-0.568-0.891c-0.212-0.416-0.426-0.829-0.643-1.241
			c-0.167-0.318-0.3-0.645-0.4-0.976c-0.222-0.266-0.42-0.557-0.593-0.872c-0.225-0.41-0.453-0.818-0.682-1.224
			c-0.176-0.312-0.319-0.634-0.429-0.961c-0.229-0.259-0.437-0.544-0.619-0.854c-0.237-0.401-0.475-0.801-0.716-1.199
			c-0.186-0.306-0.337-0.622-0.457-0.945c-0.237-0.252-0.454-0.53-0.646-0.834c-0.25-0.394-0.501-0.787-0.755-1.177
			c-0.195-0.3-0.357-0.613-0.487-0.932c-0.244-0.244-0.469-0.514-0.669-0.81c-0.261-0.387-0.526-0.771-0.792-1.154
			c-1.733-2.491-1.116-5.916,1.376-7.648c2.493-1.733,5.916-1.116,7.648,1.376c0.291,0.418,0.579,0.838,0.866,1.261
			c0.222,0.327,0.403,0.67,0.546,1.021c0.268,0.268,0.513,0.568,0.728,0.899c0.278,0.428,0.553,0.858,0.827,1.29
			c0.21,0.333,0.381,0.679,0.512,1.034c0.261,0.277,0.496,0.584,0.701,0.923c0.265,0.437,0.528,0.876,0.787,1.317
			c0.2,0.339,0.359,0.69,0.479,1.049c0.251,0.284,0.476,0.599,0.67,0.942c0.251,0.443,0.498,0.889,0.745,1.336
			c0.189,0.345,0.337,0.701,0.447,1.064c0.242,0.291,0.457,0.612,0.641,0.959c0.237,0.453,0.473,0.906,0.705,1.362
			c0.178,0.35,0.316,0.71,0.414,1.075c0.233,0.298,0.439,0.626,0.612,0.979c0.223,0.458,0.443,0.916,0.661,1.377
			c0.169,0.356,0.297,0.722,0.384,1.091c0.224,0.305,0.42,0.638,0.581,0.997c0.209,0.464,0.417,0.929,0.621,1.396
			c0.157,0.36,0.273,0.728,0.35,1.098c0.215,0.31,0.4,0.648,0.552,1.01c0.197,0.471,0.39,0.944,0.582,1.419
			c0.147,0.364,0.252,0.733,0.317,1.104c0.206,0.317,0.382,0.661,0.523,1.028c0.182,0.474,0.362,0.95,0.539,1.427
			c0.138,0.369,0.232,0.744,0.287,1.118c0.197,0.323,0.363,0.672,0.493,1.043c0.168,0.479,0.334,0.959,0.498,1.442
			c0.125,0.37,0.209,0.745,0.255,1.119c0.189,0.33,0.346,0.685,0.466,1.062c0.153,0.481,0.306,0.963,0.455,1.447
			c0.116,0.374,0.189,0.752,0.224,1.127c0.178,0.333,0.325,0.689,0.435,1.067c0.142,0.487,0.281,0.975,0.418,1.465
			c0.106,0.378,0.17,0.759,0.194,1.136c0.169,0.337,0.305,0.696,0.404,1.074c0.128,0.49,0.255,0.982,0.378,1.475
			c0.095,0.381,0.149,0.763,0.163,1.141c0.16,0.341,0.286,0.703,0.376,1.084c0.115,0.493,0.228,0.988,0.338,1.484
			c0.085,0.383,0.129,0.765,0.133,1.142c0.151,0.346,0.269,0.712,0.348,1.097c0.102,0.496,0.202,0.993,0.3,1.491
			c0.582,2.978-1.36,5.865-4.338,6.448C294.764,129.265,294.408,129.298,294.059,129.298z"/>
		<path style="fill:#FFE100;" d="M268.115,73.173c-1.577,0-3.142-0.675-4.229-1.982c-0.297-0.357-0.596-0.713-0.898-1.065
			c-0.232-0.272-0.434-0.561-0.604-0.862c-0.273-0.209-0.529-0.447-0.767-0.714c-0.31-0.348-0.621-0.694-0.934-1.039
			c-0.241-0.264-0.451-0.546-0.631-0.84c-0.28-0.201-0.545-0.431-0.79-0.69c-0.319-0.337-0.641-0.672-0.965-1.004
			c-0.249-0.256-0.468-0.53-0.657-0.818c-0.286-0.191-0.559-0.413-0.813-0.664c-0.33-0.326-0.662-0.65-0.996-0.971
			c-0.257-0.247-0.485-0.513-0.683-0.794c-0.293-0.182-0.573-0.395-0.837-0.638c-0.338-0.314-0.68-0.625-1.024-0.934
			c-0.266-0.239-0.503-0.498-0.712-0.774c-0.298-0.172-0.584-0.374-0.854-0.608c-0.35-0.303-0.703-0.604-1.058-0.902
			c-0.273-0.229-0.518-0.48-0.735-0.747c-0.303-0.162-0.595-0.354-0.873-0.579c-0.361-0.292-0.723-0.581-1.089-0.868
			c-0.28-0.22-0.533-0.463-0.758-0.722c-0.309-0.152-0.608-0.335-0.893-0.55c-0.368-0.279-0.74-0.555-1.113-0.828
			c-0.288-0.211-0.55-0.445-0.784-0.698c-0.313-0.141-0.617-0.314-0.909-0.519c-0.378-0.266-0.758-0.529-1.14-0.791
			c-0.295-0.202-0.564-0.427-0.807-0.671c-0.317-0.131-0.628-0.293-0.926-0.489c-0.388-0.253-0.776-0.505-1.168-0.754
			c-0.301-0.192-0.578-0.409-0.828-0.645c-0.321-0.12-0.636-0.272-0.941-0.458c-0.394-0.24-0.79-0.478-1.188-0.714
			c-0.308-0.182-0.59-0.389-0.848-0.616c-0.326-0.11-0.646-0.251-0.957-0.427c-0.404-0.228-0.81-0.454-1.217-0.677
			c-0.312-0.171-0.6-0.368-0.864-0.586c-0.33-0.1-0.656-0.231-0.972-0.397c-0.408-0.214-0.818-0.425-1.23-0.633
			c-0.319-0.162-0.615-0.35-0.889-0.561c-0.333-0.089-0.661-0.209-0.983-0.365c-0.414-0.2-0.831-0.398-1.25-0.593
			c-0.325-0.151-0.628-0.33-0.907-0.533c-0.336-0.078-0.669-0.188-0.996-0.334c-0.42-0.187-0.844-0.371-1.268-0.553
			c-0.33-0.141-0.638-0.31-0.924-0.504c-0.337-0.067-0.674-0.167-1.005-0.301c-0.429-0.175-0.86-0.347-1.293-0.516
			c-0.335-0.131-0.649-0.291-0.941-0.476c-0.341-0.056-0.681-0.146-1.017-0.27c-0.434-0.161-0.871-0.319-1.308-0.475
			c-0.339-0.12-0.659-0.27-0.957-0.446c-0.343-0.046-0.686-0.125-1.026-0.239c-0.44-0.148-0.88-0.293-1.324-0.435
			c-0.342-0.109-0.665-0.25-0.969-0.416c-0.345-0.035-0.691-0.103-1.036-0.208c-0.444-0.134-0.89-0.266-1.337-0.394
			c-0.346-0.1-0.674-0.229-0.983-0.387c-0.345-0.025-0.692-0.083-1.039-0.176c-0.449-0.121-0.899-0.239-1.351-0.355
			c-0.348-0.089-0.68-0.21-0.993-0.358c-0.347-0.014-0.696-0.062-1.047-0.145c-0.453-0.108-0.907-0.213-1.362-0.315
			c-0.351-0.079-0.686-0.189-1.003-0.329c-0.347-0.005-0.698-0.041-1.051-0.114c-0.456-0.094-0.913-0.187-1.372-0.276
			c-0.353-0.069-0.692-0.17-1.014-0.3c-0.341,0.003-0.698-0.022-1.052-0.084c-0.461-0.081-0.923-0.161-1.387-0.238
			c-0.354-0.059-0.694-0.15-1.019-0.271c-0.348,0.017-0.702-0.002-1.06-0.056l-0.198-0.029c-3.004-0.427-5.093-3.21-4.666-6.214
			s3.21-5.095,6.214-4.666l0.271,0.04c0.387,0.058,0.758,0.154,1.109,0.284c0.376-0.016,0.762,0.005,1.149,0.07
			c0.501,0.083,1.001,0.169,1.5,0.257c0.387,0.069,0.756,0.176,1.107,0.317c0.371-0.007,0.76,0.027,1.145,0.101
			c0.5,0.098,1.001,0.198,1.499,0.301c0.385,0.08,0.751,0.198,1.096,0.349c0.378,0.005,0.761,0.048,1.144,0.134
			c0.498,0.112,0.994,0.227,1.49,0.345c0.382,0.091,0.744,0.219,1.086,0.381c0.377,0.016,0.758,0.07,1.138,0.168
			c0.495,0.127,0.989,0.257,1.481,0.389c0.379,0.102,0.739,0.242,1.075,0.413c0.376,0.027,0.754,0.094,1.131,0.202
			c0.493,0.142,0.983,0.286,1.472,0.434c0.376,0.114,0.73,0.264,1.061,0.445c0.376,0.039,0.754,0.116,1.128,0.237
			c0.489,0.157,0.974,0.316,1.459,0.478c0.372,0.125,0.723,0.286,1.049,0.478c0.374,0.05,0.748,0.139,1.118,0.27
			c0.483,0.172,0.965,0.347,1.444,0.524c0.369,0.136,0.715,0.309,1.035,0.511c0.373,0.061,0.745,0.163,1.111,0.306
			c0.478,0.187,0.954,0.377,1.427,0.569c0.364,0.148,0.703,0.33,1.016,0.542c0.369,0.073,0.737,0.186,1.096,0.339
			c0.471,0.202,0.94,0.406,1.407,0.613c0.359,0.16,0.692,0.352,0.998,0.574c0.367,0.085,0.731,0.209,1.087,0.374
			c0.465,0.217,0.927,0.436,1.387,0.659c0.354,0.171,0.681,0.375,0.981,0.606c0.364,0.096,0.724,0.233,1.074,0.41
			c0.458,0.231,0.913,0.466,1.366,0.703c0.348,0.182,0.668,0.397,0.959,0.637c0.364,0.109,0.721,0.258,1.067,0.448
			c0.446,0.245,0.891,0.493,1.334,0.743c0.343,0.194,0.657,0.418,0.941,0.67c0.359,0.121,0.711,0.281,1.05,0.481
			c0.442,0.261,0.88,0.524,1.317,0.791c0.337,0.205,0.643,0.441,0.919,0.701c0.354,0.133,0.699,0.304,1.032,0.515
			c0.432,0.275,0.861,0.552,1.288,0.832c0.33,0.216,0.63,0.462,0.897,0.731c0.35,0.144,0.69,0.326,1.016,0.549
			c0.423,0.289,0.844,0.581,1.263,0.876c0.323,0.228,0.613,0.483,0.872,0.762c0.345,0.155,0.679,0.35,0.997,0.582
			c0.414,0.303,0.824,0.609,1.233,0.918c0.315,0.238,0.597,0.502,0.846,0.789c0.341,0.167,0.669,0.373,0.98,0.617
			c0.401,0.316,0.801,0.635,1.199,0.956c0.307,0.248,0.581,0.523,0.82,0.818c0.335,0.178,0.657,0.395,0.958,0.649
			c0.392,0.33,0.782,0.662,1.169,0.997c0.299,0.258,0.562,0.542,0.792,0.844c0.328,0.189,0.641,0.415,0.934,0.678
			c0.382,0.344,0.762,0.69,1.139,1.039c0.289,0.268,0.543,0.559,0.762,0.868c0.323,0.201,0.63,0.438,0.915,0.712
			c0.369,0.355,0.737,0.713,1.101,1.073c0.281,0.277,0.526,0.577,0.734,0.895c0.315,0.211,0.614,0.458,0.89,0.741
			c0.357,0.367,0.712,0.736,1.064,1.109c0.272,0.287,0.507,0.595,0.705,0.919c0.308,0.221,0.598,0.477,0.864,0.769
			c0.344,0.378,0.686,0.758,1.025,1.14c0.262,0.296,0.488,0.612,0.676,0.943c0.301,0.231,0.582,0.496,0.838,0.796
			c0.332,0.39,0.662,0.782,0.99,1.176c1.939,2.334,1.621,5.798-0.714,7.738C270.599,72.758,269.353,73.173,268.115,73.173z"/>
		<path style="fill:#FFE100;" d="M186.556,32.477c-0.144,0-0.287-0.006-0.432-0.017c-3.429-0.267-7.001-0.403-10.618-0.403
			c-3.035,0-5.495-2.46-5.495-5.495s2.46-5.495,5.495-5.495c3.9,0,7.76,0.147,11.471,0.436c3.026,0.235,5.287,2.879,5.051,5.905
			C191.804,30.288,189.397,32.477,186.556,32.477z"/>
		<path style="fill:#FFE100;" d="M32.491,186.529c-2.841,0-5.248-2.188-5.472-5.068c-0.29-3.714-0.436-7.573-0.436-11.471
			c0-3.035,2.46-5.495,5.495-5.495s5.495,2.46,5.495,5.495c0,3.614,0.135,7.186,0.403,10.618c0.236,3.025-2.026,5.669-5.051,5.905
			C32.778,186.524,32.634,186.529,32.491,186.529z"/>
		<path style="fill:#FFE100;" d="M57.646,252.306c-1.606,0-3.199-0.701-4.284-2.05c-0.322-0.4-0.641-0.802-0.957-1.206
			c-0.243-0.311-0.448-0.641-0.615-0.983c-0.286-0.249-0.549-0.531-0.786-0.846c-0.308-0.411-0.614-0.823-0.917-1.238
			c-0.232-0.319-0.426-0.654-0.581-0.999c-0.277-0.258-0.532-0.549-0.758-0.871c-0.295-0.42-0.588-0.845-0.877-1.27
			c-0.222-0.328-0.405-0.67-0.549-1.022c-0.268-0.268-0.513-0.567-0.729-0.897c-0.279-0.429-0.557-0.859-0.831-1.293
			c-0.211-0.333-0.382-0.68-0.514-1.036c-0.261-0.277-0.497-0.586-0.702-0.924c-0.266-0.44-0.529-0.879-0.789-1.323
			c-0.2-0.34-0.359-0.694-0.479-1.054c-0.25-0.284-0.475-0.599-0.667-0.942c-0.251-0.447-0.5-0.897-0.745-1.347
			c-0.189-0.347-0.337-0.705-0.445-1.069c-0.242-0.293-0.456-0.615-0.639-0.966c-0.236-0.454-0.469-0.91-0.699-1.367
			c-0.178-0.353-0.314-0.716-0.41-1.083c-0.232-0.301-0.437-0.632-0.608-0.988c-0.22-0.461-0.438-0.923-0.654-1.387
			c-0.166-0.359-0.29-0.726-0.375-1.096c-0.222-0.308-0.415-0.643-0.573-1.004c-0.206-0.467-0.409-0.937-0.61-1.409
			c-0.155-0.364-0.268-0.734-0.34-1.107c-0.212-0.315-0.395-0.657-0.542-1.024c-0.191-0.475-0.379-0.951-0.565-1.429
			c-0.143-0.367-0.242-0.74-0.303-1.114c-0.202-0.321-0.373-0.667-0.509-1.037c-0.176-0.48-0.349-0.961-0.52-1.444
			c-0.131-0.372-0.22-0.748-0.269-1.124c-0.191-0.327-0.352-0.678-0.476-1.051c-0.162-0.485-0.319-0.972-0.475-1.46
			c-0.12-0.376-0.197-0.756-0.235-1.133c-0.181-0.332-0.33-0.687-0.443-1.063c-0.146-0.489-0.29-0.981-0.431-1.473
			c-0.108-0.379-0.174-0.76-0.2-1.137c-0.171-0.337-0.309-0.696-0.411-1.076c-0.132-0.495-0.261-0.99-0.387-1.488
			c-0.096-0.381-0.151-0.765-0.165-1.143c-0.16-0.341-0.288-0.704-0.378-1.085c-0.117-0.498-0.231-0.996-0.342-1.496
			c-0.659-2.963,1.209-5.898,4.172-6.557c2.966-0.657,5.898,1.21,6.556,4.172c0.101,0.457,0.206,0.913,0.312,1.366
			c0.083,0.352,0.129,0.703,0.143,1.051c0.147,0.313,0.267,0.645,0.355,0.994c0.114,0.452,0.231,0.903,0.352,1.354
			c0.093,0.348,0.15,0.698,0.174,1.044c0.157,0.31,0.286,0.637,0.385,0.983c0.128,0.449,0.259,0.897,0.392,1.343
			c0.103,0.345,0.171,0.693,0.205,1.038c0.165,0.304,0.304,0.627,0.413,0.968c0.142,0.445,0.286,0.888,0.432,1.33
			c0.113,0.341,0.191,0.685,0.236,1.029c0.175,0.298,0.324,0.617,0.443,0.955c0.155,0.44,0.313,0.879,0.473,1.316
			c0.123,0.337,0.212,0.678,0.268,1.019c0.184,0.294,0.343,0.608,0.473,0.943c0.169,0.435,0.34,0.868,0.514,1.3
			c0.134,0.332,0.232,0.668,0.298,1.007c0.193,0.286,0.361,0.595,0.501,0.924c0.183,0.429,0.368,0.857,0.555,1.282
			c0.145,0.328,0.255,0.663,0.332,1c0.202,0.28,0.38,0.582,0.531,0.907c0.197,0.423,0.395,0.846,0.597,1.266
			c0.154,0.322,0.273,0.651,0.361,0.983c0.21,0.273,0.398,0.57,0.559,0.889c0.209,0.416,0.421,0.83,0.635,1.243
			c0.165,0.317,0.296,0.643,0.394,0.974c0.219,0.266,0.417,0.557,0.588,0.871c0.222,0.408,0.447,0.814,0.674,1.219
			c0.176,0.313,0.318,0.635,0.427,0.963c0.228,0.259,0.434,0.543,0.615,0.851c0.235,0.4,0.473,0.798,0.714,1.195
			c0.185,0.305,0.336,0.62,0.455,0.942c0.237,0.251,0.453,0.528,0.644,0.829c0.249,0.392,0.5,0.784,0.754,1.172
			c0.196,0.301,0.359,0.612,0.489,0.933c0.244,0.242,0.469,0.512,0.669,0.807c0.26,0.383,0.522,0.763,0.787,1.14
			c0.206,0.293,0.379,0.6,0.52,0.915c0.253,0.235,0.487,0.497,0.698,0.786c0.273,0.374,0.549,0.747,0.827,1.117
			c0.215,0.286,0.398,0.587,0.549,0.898c0.259,0.226,0.501,0.48,0.721,0.761c0.285,0.365,0.573,0.728,0.863,1.089
			c1.903,2.364,1.529,5.823-0.835,7.726C60.072,251.909,58.855,252.306,57.646,252.306z"/>
		<path style="fill:#FFE100;" d="M138.596,295.555c-0.228,0-0.458-0.014-0.691-0.043l-0.311-0.041
			c-0.385-0.051-0.756-0.141-1.108-0.265c-0.374,0.024-0.754,0.008-1.139-0.048c-0.502-0.074-1.003-0.149-1.503-0.229
			c-0.384-0.061-0.752-0.16-1.102-0.292c-0.377,0.011-0.76-0.012-1.146-0.078c-0.499-0.087-0.997-0.175-1.495-0.266
			c-0.385-0.07-0.753-0.18-1.101-0.323c-0.378,0-0.756-0.03-1.138-0.106c-0.497-0.099-0.993-0.2-1.488-0.304
			c-0.382-0.08-0.747-0.198-1.091-0.349c-0.378-0.005-0.76-0.049-1.143-0.136c-0.495-0.112-0.988-0.226-1.481-0.343
			c-0.379-0.09-0.741-0.217-1.081-0.378c-0.376-0.015-0.754-0.069-1.133-0.165c-0.495-0.125-0.987-0.253-1.478-0.383
			c-0.377-0.1-0.735-0.237-1.071-0.407c-0.375-0.025-0.753-0.089-1.129-0.195c-0.491-0.139-0.98-0.28-1.468-0.423
			c-0.375-0.111-0.729-0.257-1.06-0.436c-0.376-0.036-0.754-0.111-1.129-0.228c-0.485-0.151-0.968-0.306-1.45-0.462
			c-0.372-0.121-0.722-0.277-1.048-0.464c-0.377-0.046-0.754-0.131-1.128-0.26c-0.48-0.165-0.957-0.331-1.433-0.5
			c-0.368-0.131-0.714-0.297-1.035-0.493c-0.372-0.056-0.743-0.151-1.109-0.288c-0.476-0.178-0.952-0.359-1.425-0.542
			c-0.365-0.142-0.705-0.317-1.02-0.522c-0.37-0.067-0.739-0.173-1.102-0.32c-0.471-0.191-0.939-0.385-1.405-0.581
			c-0.362-0.152-0.699-0.338-1.01-0.553c-0.367-0.077-0.732-0.193-1.089-0.351c-0.467-0.205-0.931-0.414-1.394-0.624
			c-0.356-0.162-0.686-0.357-0.988-0.58c-0.367-0.088-0.729-0.215-1.083-0.384c-0.459-0.219-0.916-0.44-1.372-0.663
			c-0.352-0.173-0.678-0.378-0.975-0.611c-0.365-0.099-0.726-0.238-1.076-0.418c-0.452-0.232-0.902-0.467-1.35-0.704
			c-0.347-0.184-0.667-0.399-0.956-0.641c-0.361-0.11-0.716-0.259-1.06-0.448c-0.446-0.247-0.891-0.496-1.334-0.748
			c-0.341-0.194-0.653-0.418-0.935-0.668c-0.359-0.122-0.71-0.282-1.049-0.483c-0.438-0.259-0.874-0.522-1.307-0.785
			c-0.336-0.205-0.643-0.44-0.917-0.7c-0.354-0.132-0.699-0.303-1.03-0.513c-0.431-0.274-0.861-0.551-1.288-0.83
			c-0.328-0.214-0.625-0.458-0.891-0.724c-0.352-0.144-0.694-0.326-1.021-0.549c-0.421-0.287-0.841-0.577-1.259-0.868
			c-0.323-0.226-0.613-0.479-0.871-0.756c-0.347-0.154-0.682-0.347-1.001-0.579c-0.412-0.301-0.822-0.603-1.231-0.908
			c-0.315-0.235-0.599-0.498-0.848-0.784c-0.341-0.165-0.67-0.368-0.981-0.61c-0.403-0.314-0.805-0.631-1.204-0.95
			c-0.308-0.246-0.582-0.518-0.822-0.811c-0.334-0.175-0.654-0.388-0.955-0.637c-0.396-0.328-0.788-0.659-1.179-0.992
			c-0.299-0.255-0.565-0.536-0.795-0.837c-0.33-0.187-0.645-0.412-0.94-0.673c-0.383-0.34-0.763-0.683-1.142-1.027
			c-0.292-0.266-0.549-0.557-0.77-0.866c-0.323-0.198-0.63-0.432-0.916-0.703c-0.372-0.353-0.741-0.707-1.108-1.064
			c-0.283-0.276-0.53-0.575-0.741-0.89c-0.315-0.208-0.613-0.451-0.89-0.73c-0.361-0.365-0.72-0.734-1.076-1.104
			c-2.103-2.188-2.034-5.666,0.153-7.77c2.188-2.102,5.666-2.034,7.77,0.153c0.32,0.333,0.643,0.663,0.967,0.992
			c0.253,0.256,0.475,0.529,0.667,0.818c0.288,0.189,0.561,0.409,0.817,0.657c0.332,0.323,0.666,0.645,1.003,0.963
			c0.259,0.246,0.49,0.511,0.69,0.792c0.293,0.18,0.573,0.39,0.837,0.63c0.342,0.312,0.687,0.623,1.033,0.93
			c0.267,0.237,0.506,0.495,0.715,0.767c0.3,0.171,0.588,0.371,0.86,0.604c0.351,0.299,0.703,0.597,1.059,0.891
			c0.277,0.23,0.526,0.48,0.745,0.749c0.305,0.16,0.6,0.352,0.879,0.575c0.362,0.29,0.727,0.577,1.092,0.861
			c0.282,0.22,0.537,0.461,0.763,0.72c0.31,0.15,0.61,0.332,0.896,0.546c0.372,0.278,0.746,0.553,1.122,0.827
			c0.288,0.21,0.549,0.443,0.784,0.694c0.315,0.14,0.621,0.313,0.915,0.518c0.381,0.266,0.763,0.53,1.147,0.793
			c0.294,0.2,0.562,0.423,0.804,0.667c0.321,0.131,0.633,0.294,0.933,0.491c0.388,0.253,0.777,0.504,1.168,0.753
			c0.302,0.192,0.579,0.409,0.83,0.645c0.323,0.12,0.638,0.273,0.943,0.458c0.397,0.242,0.796,0.482,1.197,0.72
			c0.307,0.182,0.59,0.39,0.848,0.617c0.327,0.111,0.649,0.255,0.961,0.432c0.403,0.229,0.808,0.456,1.214,0.68
			c0.313,0.173,0.603,0.372,0.868,0.593c0.33,0.1,0.655,0.233,0.971,0.401c0.411,0.218,0.824,0.432,1.239,0.646
			c0.317,0.164,0.612,0.353,0.882,0.565c0.333,0.091,0.662,0.214,0.983,0.372c0.418,0.204,0.837,0.407,1.257,0.608
			c0.323,0.154,0.624,0.336,0.902,0.54c0.337,0.081,0.671,0.195,0.997,0.344c0.421,0.192,0.845,0.381,1.27,0.569
			c0.329,0.145,0.637,0.318,0.922,0.516c0.337,0.07,0.672,0.175,1.002,0.313c0.429,0.18,0.86,0.358,1.292,0.534
			c0.332,0.135,0.645,0.299,0.933,0.488c0.341,0.061,0.68,0.156,1.015,0.286c0.432,0.167,0.866,0.333,1.302,0.496
			c0.336,0.125,0.653,0.281,0.948,0.461c0.342,0.052,0.684,0.137,1.023,0.257c0.443,0.156,0.887,0.311,1.333,0.465
			c0.337,0.116,0.657,0.262,0.955,0.433c0.346,0.042,0.692,0.118,1.035,0.229c0.445,0.145,0.893,0.286,1.341,0.426
			c0.343,0.107,0.667,0.245,0.972,0.409c0.346,0.033,0.696,0.099,1.041,0.201c0.447,0.132,0.896,0.261,1.346,0.388
			c0.348,0.098,0.678,0.228,0.989,0.385c0.348,0.023,0.698,0.08,1.048,0.173c0.451,0.12,0.902,0.237,1.356,0.352
			c0.35,0.089,0.685,0.209,0.999,0.358c0.348,0.014,0.7,0.062,1.052,0.145c0.456,0.108,0.913,0.213,1.372,0.317
			c0.35,0.079,0.685,0.19,1.003,0.33c0.348,0.005,0.701,0.043,1.054,0.117c0.459,0.096,0.92,0.191,1.381,0.283
			c0.356,0.07,0.696,0.175,1.019,0.307c0.345-0.003,0.701,0.025,1.056,0.091c0.462,0.085,0.924,0.167,1.388,0.247
			c0.355,0.062,0.696,0.156,1.021,0.28c0.35-0.014,0.706,0.007,1.065,0.064c0.46,0.072,0.922,0.143,1.384,0.211
			c0.359,0.052,0.705,0.139,1.035,0.255c0.349-0.022,0.706-0.01,1.066,0.039l0.231,0.03c3.011,0.378,5.146,3.125,4.768,6.136
			C143.692,293.522,141.326,295.555,138.596,295.555z"/>
		<path style="fill:#FFE100;" d="M158.954,296.848c-3.809,0-7.649-0.131-11.413-0.388c-3.028-0.207-5.315-2.83-5.107-5.858
			c0.207-3.027,2.832-5.317,5.857-5.107c3.516,0.241,7.104,0.363,10.664,0.363c3.035,0,5.495,2.46,5.495,5.495
			S161.989,296.848,158.954,296.848z"/>
		<path style="fill:#FFE100;" d="M296.87,158.935c-1.407,0-2.813-0.537-3.886-1.61c-2.146-2.146-2.146-5.625,0-7.771l22.066-22.066
			c2.146-2.146,5.625-2.146,7.771,0c2.146,2.146,2.146,5.625,0,7.771l-22.066,22.066
			C299.682,158.399,298.276,158.935,296.87,158.935z"/>
		<path style="fill:#FFE100;" d="M296.87,158.935c-1.407,0-2.813-0.537-3.886-1.61l-22.066-22.066c-2.146-2.146-2.146-5.625,0-7.771
			c2.147-2.146,5.626-2.146,7.771,0l22.066,22.066c2.146,2.146,2.146,5.625,0,7.771C299.682,158.399,298.276,158.935,296.87,158.935
			z"/>
		<path style="fill:#FFE100;" d="M10.011,197.551c-1.406,0-2.813-0.537-3.885-1.609c-2.146-2.146-2.146-5.625,0-7.771l22.066-22.066
			c2.146-2.145,5.625-2.145,7.771,0c2.146,2.146,2.146,5.625,0,7.771l-22.066,22.066C12.824,197.015,11.418,197.551,10.011,197.551z
			"/>
		<path style="fill:#FFE100;" d="M54.143,197.551c-1.407,0-2.813-0.537-3.885-1.609l-22.066-22.066
			c-2.146-2.146-2.146-5.626,0-7.771c2.146-2.146,5.625-2.145,7.771,0l22.066,22.066c2.146,2.146,2.146,5.626,0,7.771
			C56.956,197.015,55.549,197.551,54.143,197.551z"/>
		<path style="fill:#FFE100;" d="M169.99,87.242c0,45.699-37.049,82.747-82.747,82.747S4.495,132.941,4.495,87.242
			S41.544,4.495,87.242,4.495S169.99,41.544,169.99,87.242"/>
	</g>
	<path style="fill:#FFFFFF;" d="M87.242,4.495c2.791,0,5.55,0.149,8.275,0.42C53.702,9.068,21.044,44.335,21.044,87.242
		s32.657,78.174,74.473,82.328c-2.725,0.27-5.483,0.42-8.275,0.42c-45.699,0-82.747-37.049-82.747-82.747S41.544,4.495,87.242,4.495
		"/>
	<path style="fill:#FFE100;" d="M158.957,241.704c0,45.699,37.049,82.747,82.747,82.747s82.747-37.049,82.747-82.747
		s-37.049-82.747-82.747-82.747S158.957,196.006,158.957,241.704"/>
	<path style="fill:#FFA800;" d="M241.704,158.957c-2.791,0-5.55,0.149-8.275,0.42c41.815,4.154,74.473,39.421,74.473,82.328
		s-32.657,78.174-74.473,82.328c2.725,0.27,5.483,0.42,8.275,0.42c45.699,0,82.747-37.049,82.747-82.747
		S287.403,158.957,241.704,158.957"/>
	<path d="M291.353,158.935c-3.035,0-5.495-2.46-5.495-5.495c0-3.565-0.122-7.152-0.363-10.663c-0.207-3.028,2.08-5.65,5.107-5.858
		c3.014-0.209,5.649,2.079,5.858,5.106c0.257,3.759,0.388,7.599,0.388,11.414C296.848,156.475,294.388,158.935,291.353,158.935z"/>
	<path d="M288.543,129.298c-2.575,0-4.874-1.819-5.387-4.441c-0.091-0.463-0.184-0.925-0.279-1.385
		c-0.072-0.353-0.11-0.705-0.114-1.053c-0.14-0.319-0.251-0.656-0.329-1.008c-0.103-0.46-0.207-0.919-0.314-1.376
		c-0.082-0.352-0.128-0.703-0.142-1.052c-0.147-0.314-0.267-0.648-0.355-0.997c-0.115-0.457-0.231-0.913-0.35-1.367
		c-0.092-0.35-0.148-0.701-0.17-1.05c-0.155-0.31-0.283-0.639-0.379-0.985c-0.127-0.454-0.256-0.906-0.387-1.358
		c-0.1-0.346-0.165-0.694-0.197-1.039c-0.165-0.307-0.302-0.633-0.409-0.978c-0.14-0.452-0.282-0.902-0.425-1.351
		c-0.109-0.341-0.182-0.685-0.224-1.028c-0.173-0.302-0.318-0.624-0.434-0.966c-0.151-0.445-0.304-0.889-0.46-1.331
		c-0.119-0.337-0.202-0.679-0.253-1.021c-0.181-0.297-0.337-0.615-0.462-0.953c-0.164-0.441-0.33-0.88-0.497-1.317
		c-0.129-0.336-0.223-0.676-0.283-1.018c-0.189-0.292-0.354-0.606-0.489-0.941c-0.175-0.433-0.352-0.865-0.531-1.294
		c-0.139-0.333-0.242-0.672-0.313-1.012c-0.197-0.285-0.368-0.593-0.513-0.922c-0.188-0.43-0.379-0.858-0.571-1.284
		c-0.148-0.327-0.261-0.661-0.341-0.997c-0.204-0.279-0.386-0.581-0.539-0.905c-0.201-0.424-0.403-0.846-0.608-1.266
		c-0.157-0.323-0.281-0.654-0.37-0.988c-0.213-0.273-0.403-0.57-0.566-0.89c-0.212-0.416-0.426-0.829-0.643-1.241
		c-0.167-0.317-0.3-0.645-0.4-0.976c-0.222-0.266-0.421-0.558-0.594-0.873c-0.225-0.41-0.453-0.818-0.682-1.224
		c-0.176-0.312-0.318-0.634-0.428-0.961c-0.229-0.26-0.438-0.545-0.62-0.855c-0.237-0.401-0.475-0.801-0.716-1.199
		c-0.186-0.306-0.337-0.623-0.457-0.946c-0.237-0.252-0.453-0.529-0.645-0.833c-0.25-0.394-0.501-0.787-0.755-1.177
		c-0.195-0.3-0.357-0.613-0.487-0.932c-0.244-0.244-0.469-0.514-0.669-0.81c-0.262-0.388-0.528-0.774-0.795-1.158
		c-1.729-2.493-1.109-5.917,1.385-7.647c2.493-1.73,5.918-1.11,7.647,1.384c0.288,0.417,0.577,0.835,0.862,1.256
		c0.222,0.327,0.403,0.67,0.546,1.021c0.268,0.268,0.513,0.568,0.728,0.899c0.278,0.428,0.553,0.858,0.827,1.29
		c0.211,0.333,0.381,0.68,0.513,1.035c0.26,0.277,0.495,0.584,0.699,0.922c0.265,0.437,0.528,0.876,0.787,1.317
		c0.2,0.339,0.359,0.69,0.478,1.049c0.251,0.284,0.476,0.599,0.67,0.943c0.251,0.443,0.498,0.889,0.745,1.336
		c0.189,0.345,0.337,0.701,0.447,1.063c0.242,0.291,0.458,0.612,0.641,0.961c0.237,0.453,0.473,0.906,0.705,1.362
		c0.178,0.35,0.316,0.711,0.415,1.076c0.232,0.298,0.438,0.624,0.61,0.978c0.223,0.458,0.443,0.916,0.661,1.377
		c0.169,0.356,0.296,0.721,0.384,1.09c0.224,0.305,0.42,0.639,0.582,0.997c0.209,0.464,0.417,0.929,0.621,1.396
		c0.158,0.361,0.274,0.729,0.35,1.099c0.214,0.31,0.399,0.647,0.551,1.009c0.197,0.471,0.39,0.944,0.582,1.419
		c0.147,0.364,0.252,0.733,0.317,1.104c0.206,0.317,0.382,0.661,0.523,1.028c0.182,0.475,0.362,0.95,0.539,1.427
		c0.137,0.368,0.231,0.741,0.286,1.115c0.198,0.324,0.365,0.674,0.496,1.047c0.168,0.479,0.334,0.959,0.498,1.442
		c0.126,0.372,0.21,0.747,0.255,1.122c0.188,0.33,0.345,0.684,0.465,1.06c0.153,0.481,0.306,0.963,0.455,1.447
		c0.116,0.374,0.189,0.752,0.224,1.127c0.178,0.333,0.325,0.689,0.435,1.067c0.142,0.487,0.281,0.975,0.418,1.465
		c0.106,0.379,0.17,0.76,0.194,1.138c0.168,0.336,0.305,0.694,0.403,1.072c0.128,0.49,0.255,0.982,0.378,1.475
		c0.095,0.381,0.149,0.762,0.163,1.14c0.16,0.341,0.286,0.704,0.376,1.085c0.115,0.493,0.228,0.988,0.338,1.484
		c0.085,0.383,0.129,0.765,0.133,1.142c0.151,0.346,0.269,0.712,0.348,1.097c0.102,0.496,0.202,0.993,0.3,1.491
		c0.582,2.978-1.36,5.865-4.338,6.448C289.248,129.265,288.892,129.298,288.543,129.298z"/>
	<path d="M262.599,73.173c-1.577,0-3.142-0.675-4.229-1.982c-0.297-0.357-0.596-0.713-0.898-1.065
		c-0.232-0.272-0.434-0.561-0.604-0.862c-0.273-0.209-0.529-0.447-0.767-0.714c-0.31-0.348-0.621-0.694-0.934-1.039
		c-0.24-0.264-0.451-0.546-0.631-0.84c-0.28-0.201-0.545-0.431-0.79-0.69c-0.319-0.337-0.641-0.672-0.965-1.004
		c-0.249-0.256-0.468-0.53-0.657-0.818c-0.286-0.191-0.559-0.413-0.813-0.664c-0.33-0.326-0.662-0.65-0.996-0.971
		c-0.257-0.247-0.485-0.513-0.683-0.794c-0.293-0.182-0.573-0.395-0.837-0.638c-0.338-0.314-0.68-0.625-1.024-0.934
		c-0.266-0.239-0.503-0.498-0.712-0.774c-0.298-0.172-0.584-0.374-0.854-0.608c-0.35-0.303-0.703-0.604-1.058-0.902
		c-0.273-0.229-0.518-0.48-0.735-0.747c-0.303-0.162-0.595-0.354-0.873-0.579c-0.361-0.292-0.723-0.581-1.089-0.868
		c-0.28-0.22-0.533-0.463-0.758-0.722c-0.309-0.152-0.608-0.335-0.893-0.55c-0.368-0.279-0.74-0.555-1.113-0.828
		c-0.288-0.211-0.55-0.445-0.784-0.698c-0.313-0.141-0.617-0.314-0.909-0.519c-0.378-0.266-0.758-0.529-1.14-0.791
		c-0.295-0.202-0.564-0.427-0.807-0.671c-0.317-0.131-0.628-0.293-0.926-0.489c-0.388-0.253-0.776-0.505-1.168-0.754
		c-0.301-0.192-0.578-0.409-0.828-0.645c-0.321-0.12-0.636-0.272-0.941-0.458c-0.394-0.24-0.79-0.478-1.188-0.714
		c-0.308-0.182-0.59-0.389-0.848-0.616c-0.326-0.11-0.646-0.251-0.957-0.427c-0.404-0.228-0.81-0.454-1.217-0.677
		c-0.312-0.171-0.6-0.368-0.864-0.586c-0.33-0.1-0.656-0.231-0.972-0.397c-0.408-0.214-0.818-0.425-1.23-0.633
		c-0.319-0.162-0.615-0.35-0.889-0.561c-0.333-0.089-0.661-0.209-0.983-0.365c-0.414-0.2-0.831-0.398-1.25-0.593
		c-0.325-0.151-0.628-0.33-0.907-0.533c-0.336-0.078-0.669-0.188-0.996-0.334c-0.42-0.187-0.844-0.371-1.268-0.553
		c-0.33-0.141-0.638-0.31-0.924-0.504c-0.337-0.067-0.674-0.167-1.005-0.301c-0.429-0.175-0.86-0.347-1.293-0.516
		c-0.335-0.131-0.649-0.291-0.941-0.476c-0.341-0.056-0.681-0.146-1.017-0.27c-0.434-0.161-0.871-0.319-1.308-0.475
		c-0.339-0.12-0.659-0.27-0.957-0.446c-0.343-0.046-0.686-0.125-1.026-0.239c-0.44-0.148-0.88-0.293-1.324-0.435
		c-0.342-0.109-0.665-0.25-0.969-0.416c-0.345-0.035-0.691-0.103-1.036-0.208c-0.444-0.134-0.89-0.266-1.337-0.394
		c-0.346-0.1-0.674-0.229-0.983-0.387c-0.345-0.025-0.692-0.083-1.039-0.176c-0.449-0.121-0.899-0.239-1.351-0.355
		c-0.348-0.089-0.68-0.21-0.993-0.358c-0.347-0.014-0.696-0.062-1.047-0.145c-0.453-0.108-0.907-0.213-1.362-0.315
		c-0.351-0.079-0.686-0.189-1.003-0.329c-0.347-0.005-0.698-0.041-1.051-0.114c-0.456-0.094-0.913-0.187-1.372-0.276
		c-0.353-0.069-0.692-0.17-1.014-0.3c-0.34,0.003-0.698-0.022-1.052-0.084c-0.461-0.081-0.923-0.161-1.387-0.238
		c-0.354-0.059-0.694-0.15-1.019-0.271c-0.348,0.017-0.703-0.002-1.06-0.056l-0.198-0.029c-3.004-0.427-5.093-3.21-4.666-6.214
		c0.428-3.004,3.208-5.095,6.214-4.666l0.271,0.04c0.387,0.058,0.758,0.154,1.109,0.284c0.375-0.016,0.762,0.005,1.149,0.07
		c0.501,0.083,1.001,0.169,1.5,0.257c0.387,0.069,0.756,0.176,1.107,0.317c0.369-0.007,0.76,0.027,1.145,0.101
		c0.5,0.098,1.001,0.198,1.499,0.301c0.385,0.08,0.751,0.198,1.096,0.349c0.378,0.005,0.761,0.048,1.144,0.134
		c0.498,0.112,0.994,0.227,1.49,0.345c0.382,0.091,0.744,0.219,1.086,0.381c0.377,0.016,0.758,0.07,1.138,0.168
		c0.495,0.127,0.989,0.257,1.481,0.389c0.379,0.102,0.739,0.242,1.075,0.413c0.376,0.027,0.754,0.094,1.131,0.202
		c0.493,0.142,0.983,0.286,1.472,0.434c0.376,0.114,0.731,0.264,1.061,0.445c0.376,0.039,0.754,0.116,1.128,0.237
		c0.489,0.157,0.974,0.316,1.459,0.478c0.372,0.125,0.723,0.286,1.049,0.478c0.374,0.05,0.748,0.139,1.118,0.27
		c0.483,0.172,0.965,0.347,1.444,0.524c0.369,0.136,0.715,0.309,1.035,0.511c0.373,0.061,0.745,0.163,1.111,0.306
		c0.478,0.187,0.954,0.377,1.427,0.569c0.364,0.148,0.703,0.33,1.016,0.542c0.369,0.073,0.737,0.186,1.096,0.339
		c0.471,0.202,0.94,0.406,1.407,0.613c0.359,0.16,0.692,0.352,0.998,0.574c0.367,0.085,0.731,0.209,1.087,0.374
		c0.465,0.217,0.927,0.436,1.387,0.659c0.354,0.171,0.681,0.375,0.981,0.606c0.364,0.096,0.724,0.233,1.074,0.41
		c0.458,0.231,0.913,0.466,1.366,0.703c0.348,0.182,0.668,0.397,0.959,0.637c0.364,0.109,0.721,0.258,1.067,0.448
		c0.446,0.245,0.891,0.493,1.334,0.743c0.343,0.194,0.657,0.418,0.941,0.67c0.359,0.121,0.711,0.281,1.05,0.481
		c0.442,0.261,0.88,0.524,1.317,0.791c0.337,0.205,0.643,0.441,0.919,0.701c0.354,0.133,0.699,0.304,1.032,0.515
		c0.432,0.275,0.861,0.552,1.288,0.832c0.33,0.216,0.63,0.462,0.897,0.731c0.35,0.144,0.69,0.326,1.016,0.549
		c0.423,0.289,0.844,0.581,1.263,0.876c0.323,0.228,0.614,0.483,0.872,0.762c0.345,0.155,0.679,0.35,0.997,0.582
		c0.414,0.303,0.824,0.609,1.233,0.918c0.315,0.238,0.597,0.502,0.846,0.789c0.341,0.167,0.669,0.373,0.98,0.617
		c0.401,0.316,0.801,0.635,1.199,0.956c0.307,0.248,0.581,0.523,0.82,0.818c0.335,0.178,0.657,0.395,0.958,0.649
		c0.392,0.33,0.782,0.662,1.169,0.997c0.299,0.258,0.562,0.542,0.792,0.844c0.328,0.189,0.641,0.415,0.934,0.678
		c0.382,0.344,0.762,0.69,1.139,1.039c0.289,0.268,0.543,0.559,0.762,0.868c0.323,0.201,0.63,0.438,0.915,0.712
		c0.369,0.355,0.737,0.713,1.101,1.073c0.281,0.277,0.526,0.577,0.734,0.895c0.315,0.211,0.614,0.458,0.89,0.741
		c0.357,0.367,0.712,0.736,1.064,1.109c0.272,0.287,0.507,0.595,0.705,0.919c0.308,0.221,0.598,0.477,0.864,0.769
		c0.344,0.378,0.686,0.758,1.025,1.14c0.262,0.296,0.488,0.612,0.676,0.943c0.301,0.231,0.582,0.496,0.838,0.796
		c0.332,0.39,0.662,0.782,0.99,1.176c1.939,2.334,1.621,5.798-0.714,7.738C265.082,72.758,263.837,73.173,262.599,73.173z"/>
	<path d="M181.04,32.477c-0.144,0-0.287-0.006-0.432-0.017c-3.429-0.267-7.001-0.403-10.618-0.403c-3.035,0-5.495-2.46-5.495-5.495
		s2.46-5.495,5.495-5.495c3.9,0,7.76,0.147,11.471,0.436c3.026,0.235,5.287,2.879,5.051,5.905
		C186.288,30.288,183.88,32.477,181.04,32.477z"/>
	<path d="M26.974,186.529c-2.841,0-5.248-2.188-5.472-5.069c-0.289-3.715-0.436-7.574-0.436-11.47c0-3.035,2.46-5.495,5.495-5.495
		s5.495,2.46,5.495,5.495c0,3.613,0.135,7.185,0.403,10.618c0.235,3.025-2.027,5.669-5.052,5.905
		C27.261,186.524,27.117,186.529,26.974,186.529z"/>
	<path d="M52.13,252.306c-1.606,0-3.199-0.701-4.284-2.05c-0.322-0.4-0.641-0.802-0.957-1.206c-0.244-0.312-0.449-0.641-0.615-0.983
		c-0.284-0.248-0.548-0.529-0.784-0.842c-0.31-0.411-0.616-0.824-0.92-1.241c-0.233-0.319-0.426-0.655-0.581-1.001
		c-0.277-0.258-0.531-0.549-0.758-0.871c-0.295-0.42-0.588-0.845-0.877-1.27c-0.222-0.327-0.405-0.669-0.548-1.021
		c-0.269-0.267-0.513-0.567-0.729-0.897c-0.279-0.429-0.557-0.859-0.831-1.293c-0.211-0.334-0.382-0.681-0.514-1.036
		c-0.261-0.277-0.497-0.586-0.701-0.924c-0.266-0.44-0.529-0.879-0.789-1.323c-0.2-0.339-0.359-0.692-0.479-1.053
		c-0.25-0.284-0.475-0.599-0.668-0.943c-0.251-0.447-0.5-0.897-0.745-1.347c-0.189-0.347-0.337-0.706-0.445-1.07
		c-0.241-0.292-0.455-0.615-0.637-0.965c-0.236-0.454-0.469-0.91-0.699-1.367c-0.177-0.352-0.314-0.715-0.41-1.082
		c-0.233-0.302-0.438-0.633-0.608-0.99c-0.22-0.461-0.438-0.923-0.654-1.387c-0.166-0.359-0.291-0.727-0.375-1.097
		c-0.222-0.308-0.414-0.643-0.573-1.003c-0.206-0.467-0.409-0.937-0.61-1.409c-0.155-0.364-0.268-0.734-0.34-1.107
		c-0.212-0.315-0.395-0.657-0.542-1.023c-0.191-0.475-0.379-0.951-0.565-1.429c-0.142-0.367-0.242-0.74-0.303-1.113
		c-0.202-0.321-0.373-0.668-0.509-1.038c-0.176-0.48-0.349-0.961-0.52-1.444c-0.131-0.372-0.22-0.749-0.269-1.125
		c-0.191-0.326-0.351-0.677-0.475-1.05c-0.162-0.485-0.319-0.972-0.475-1.46c-0.12-0.376-0.197-0.755-0.235-1.133
		c-0.181-0.332-0.33-0.687-0.443-1.064c-0.146-0.489-0.29-0.981-0.431-1.473c-0.108-0.379-0.174-0.76-0.2-1.138
		c-0.171-0.336-0.309-0.696-0.41-1.074c-0.132-0.495-0.261-0.99-0.387-1.488c-0.096-0.381-0.151-0.764-0.165-1.142
		c-0.161-0.341-0.288-0.704-0.378-1.086c-0.117-0.498-0.231-0.996-0.342-1.496c-0.659-2.963,1.209-5.898,4.172-6.557
		c2.965-0.657,5.898,1.21,6.556,4.172c0.101,0.457,0.206,0.913,0.312,1.366c0.083,0.352,0.129,0.703,0.143,1.051
		c0.147,0.313,0.267,0.646,0.356,0.994c0.114,0.452,0.231,0.903,0.352,1.354c0.093,0.348,0.15,0.698,0.175,1.045
		c0.156,0.309,0.286,0.636,0.385,0.982c0.128,0.449,0.259,0.897,0.392,1.343c0.103,0.345,0.171,0.692,0.205,1.038
		c0.165,0.304,0.305,0.628,0.414,0.969c0.142,0.445,0.286,0.888,0.432,1.33c0.113,0.341,0.191,0.686,0.237,1.03
		c0.175,0.298,0.323,0.617,0.443,0.955c0.155,0.44,0.313,0.879,0.473,1.316c0.123,0.337,0.212,0.677,0.268,1.019
		c0.184,0.294,0.343,0.608,0.473,0.944c0.169,0.435,0.34,0.868,0.514,1.3c0.134,0.332,0.232,0.668,0.298,1.007
		c0.193,0.286,0.361,0.594,0.5,0.923c0.183,0.429,0.368,0.857,0.555,1.282c0.145,0.328,0.255,0.663,0.332,1.001
		c0.202,0.28,0.379,0.582,0.53,0.906c0.197,0.423,0.395,0.846,0.597,1.266c0.154,0.321,0.273,0.65,0.361,0.983
		c0.211,0.273,0.399,0.571,0.56,0.89c0.209,0.416,0.421,0.83,0.635,1.243c0.165,0.318,0.296,0.645,0.394,0.976
		c0.219,0.266,0.416,0.556,0.587,0.87c0.222,0.408,0.447,0.814,0.674,1.219c0.176,0.312,0.317,0.634,0.427,0.963
		c0.228,0.259,0.435,0.544,0.617,0.852c0.235,0.4,0.473,0.798,0.714,1.195c0.185,0.305,0.336,0.62,0.456,0.943
		c0.236,0.251,0.452,0.527,0.643,0.829c0.249,0.392,0.5,0.784,0.754,1.172c0.196,0.3,0.358,0.612,0.489,0.932
		c0.244,0.243,0.469,0.513,0.67,0.807c0.26,0.383,0.522,0.763,0.787,1.14c0.206,0.294,0.379,0.601,0.52,0.916
		c0.253,0.235,0.486,0.498,0.698,0.786c0.272,0.373,0.548,0.744,0.824,1.113c0.217,0.287,0.401,0.59,0.553,0.902
		c0.259,0.226,0.501,0.48,0.721,0.761c0.285,0.365,0.573,0.728,0.863,1.089c1.903,2.364,1.529,5.823-0.835,7.726
		C54.556,251.909,53.339,252.306,52.13,252.306z"/>
	<path d="M133.079,295.555c-0.228,0-0.458-0.014-0.691-0.043l-0.311-0.041c-0.385-0.051-0.756-0.141-1.108-0.265
		c-0.374,0.024-0.754,0.008-1.139-0.048c-0.502-0.074-1.003-0.149-1.503-0.229c-0.384-0.061-0.752-0.16-1.102-0.292
		c-0.377,0.011-0.76-0.012-1.146-0.078c-0.499-0.087-0.997-0.175-1.495-0.266c-0.385-0.07-0.753-0.18-1.101-0.323
		c-0.378,0-0.756-0.03-1.138-0.106c-0.497-0.099-0.993-0.2-1.488-0.304c-0.382-0.08-0.747-0.198-1.091-0.349
		c-0.378-0.005-0.76-0.049-1.144-0.136c-0.495-0.112-0.988-0.226-1.481-0.343c-0.379-0.09-0.741-0.217-1.081-0.378
		c-0.375-0.015-0.754-0.069-1.133-0.165c-0.495-0.125-0.987-0.253-1.478-0.383c-0.377-0.1-0.735-0.237-1.071-0.407
		c-0.375-0.025-0.753-0.089-1.129-0.195c-0.491-0.139-0.98-0.28-1.468-0.423c-0.374-0.111-0.728-0.257-1.058-0.435
		c-0.376-0.036-0.755-0.111-1.131-0.228c-0.485-0.151-0.968-0.306-1.45-0.462c-0.372-0.121-0.723-0.277-1.049-0.465
		c-0.377-0.046-0.755-0.132-1.129-0.26c-0.479-0.165-0.956-0.331-1.432-0.5c-0.369-0.131-0.715-0.297-1.037-0.494
		c-0.371-0.056-0.742-0.151-1.107-0.288c-0.476-0.178-0.952-0.359-1.425-0.542c-0.364-0.141-0.704-0.316-1.019-0.522
		c-0.37-0.067-0.74-0.173-1.103-0.32c-0.471-0.191-0.939-0.385-1.405-0.581c-0.362-0.152-0.699-0.338-1.009-0.553
		c-0.367-0.077-0.732-0.193-1.09-0.351c-0.467-0.205-0.931-0.414-1.394-0.624c-0.355-0.162-0.685-0.356-0.987-0.579
		c-0.367-0.089-0.73-0.216-1.085-0.385c-0.459-0.219-0.916-0.44-1.372-0.663c-0.353-0.173-0.679-0.379-0.976-0.612
		c-0.365-0.099-0.725-0.238-1.074-0.418c-0.452-0.232-0.902-0.467-1.35-0.704c-0.347-0.184-0.667-0.399-0.956-0.641
		c-0.361-0.11-0.716-0.259-1.06-0.448c-0.447-0.247-0.891-0.496-1.334-0.748c-0.341-0.194-0.652-0.418-0.934-0.668
		c-0.359-0.122-0.71-0.282-1.049-0.483c-0.438-0.259-0.874-0.522-1.307-0.785c-0.337-0.205-0.643-0.441-0.918-0.701
		c-0.354-0.132-0.699-0.303-1.03-0.513c-0.431-0.274-0.861-0.551-1.288-0.83c-0.328-0.214-0.625-0.458-0.891-0.724
		c-0.352-0.144-0.694-0.326-1.021-0.549c-0.422-0.287-0.841-0.577-1.259-0.868c-0.323-0.226-0.613-0.479-0.871-0.756
		c-0.347-0.154-0.682-0.347-1.001-0.579c-0.412-0.301-0.822-0.603-1.231-0.908c-0.316-0.236-0.599-0.499-0.849-0.785
		c-0.341-0.165-0.67-0.368-0.98-0.61c-0.403-0.314-0.805-0.631-1.204-0.95c-0.308-0.246-0.581-0.518-0.822-0.81
		c-0.334-0.175-0.654-0.389-0.956-0.638c-0.396-0.328-0.788-0.659-1.179-0.992c-0.299-0.255-0.565-0.536-0.795-0.837
		c-0.33-0.187-0.645-0.412-0.94-0.673c-0.383-0.34-0.763-0.683-1.142-1.027c-0.292-0.266-0.549-0.557-0.77-0.866
		c-0.323-0.198-0.63-0.432-0.917-0.703c-0.372-0.353-0.741-0.707-1.107-1.064c-0.283-0.276-0.53-0.575-0.741-0.89
		c-0.315-0.208-0.613-0.451-0.89-0.73c-0.361-0.365-0.72-0.734-1.076-1.104c-2.103-2.188-2.034-5.666,0.153-7.77
		c2.188-2.102,5.666-2.034,7.77,0.153c0.32,0.333,0.643,0.663,0.967,0.992c0.253,0.256,0.475,0.529,0.667,0.818
		c0.288,0.189,0.561,0.409,0.817,0.657c0.332,0.323,0.666,0.645,1.003,0.963c0.259,0.246,0.489,0.511,0.69,0.792
		c0.293,0.18,0.573,0.39,0.837,0.63c0.342,0.312,0.687,0.623,1.033,0.93c0.267,0.237,0.506,0.495,0.715,0.767
		c0.3,0.171,0.588,0.371,0.86,0.604c0.35,0.299,0.704,0.597,1.059,0.891c0.277,0.229,0.525,0.48,0.745,0.747
		c0.305,0.16,0.6,0.352,0.879,0.576c0.362,0.29,0.727,0.577,1.092,0.861c0.283,0.22,0.537,0.462,0.764,0.72
		c0.31,0.15,0.609,0.332,0.895,0.546c0.372,0.278,0.746,0.553,1.122,0.827c0.288,0.21,0.549,0.443,0.784,0.694
		c0.315,0.14,0.621,0.313,0.915,0.518c0.381,0.266,0.763,0.53,1.147,0.793c0.294,0.2,0.562,0.423,0.804,0.667
		c0.321,0.131,0.633,0.294,0.933,0.491c0.388,0.253,0.777,0.504,1.168,0.753c0.303,0.192,0.58,0.409,0.831,0.646
		c0.323,0.121,0.638,0.273,0.943,0.458c0.397,0.242,0.796,0.482,1.197,0.72c0.307,0.182,0.589,0.389,0.847,0.617
		c0.328,0.111,0.649,0.255,0.961,0.432c0.403,0.229,0.808,0.456,1.214,0.68c0.313,0.173,0.603,0.372,0.868,0.593
		c0.33,0.1,0.655,0.233,0.971,0.401c0.411,0.218,0.824,0.432,1.239,0.646c0.317,0.164,0.612,0.354,0.884,0.566
		c0.332,0.091,0.661,0.213,0.982,0.371c0.418,0.204,0.837,0.407,1.257,0.608c0.323,0.153,0.624,0.335,0.901,0.539
		c0.337,0.081,0.672,0.196,0.999,0.345c0.421,0.192,0.845,0.381,1.27,0.569c0.329,0.145,0.637,0.318,0.922,0.516
		c0.337,0.07,0.673,0.175,1.003,0.313c0.429,0.18,0.86,0.358,1.292,0.534c0.332,0.135,0.643,0.299,0.932,0.487
		c0.341,0.061,0.681,0.156,1.016,0.286c0.432,0.167,0.866,0.333,1.302,0.496c0.337,0.125,0.654,0.281,0.95,0.462
		c0.341,0.052,0.683,0.136,1.02,0.256c0.443,0.156,0.888,0.311,1.334,0.465c0.337,0.116,0.657,0.262,0.955,0.434
		c0.345,0.042,0.691,0.118,1.035,0.229c0.445,0.145,0.893,0.286,1.341,0.426c0.342,0.107,0.667,0.244,0.97,0.409
		c0.347,0.033,0.696,0.099,1.043,0.201c0.447,0.132,0.896,0.261,1.346,0.388c0.348,0.098,0.678,0.228,0.989,0.385
		c0.348,0.023,0.698,0.08,1.048,0.173c0.451,0.12,0.902,0.237,1.356,0.352c0.35,0.089,0.685,0.209,1,0.358
		c0.348,0.014,0.7,0.062,1.051,0.145c0.456,0.108,0.913,0.213,1.372,0.317c0.35,0.079,0.685,0.19,1.003,0.33
		c0.348,0.005,0.701,0.043,1.055,0.117c0.459,0.096,0.92,0.191,1.381,0.283c0.356,0.07,0.696,0.175,1.019,0.307
		c0.347-0.003,0.701,0.025,1.056,0.091c0.462,0.085,0.924,0.167,1.388,0.247c0.355,0.062,0.696,0.156,1.021,0.28
		c0.35-0.014,0.706,0.007,1.065,0.064c0.46,0.072,0.922,0.143,1.384,0.211c0.359,0.052,0.705,0.139,1.035,0.255
		c0.348-0.022,0.705-0.01,1.066,0.039l0.231,0.03c3.011,0.378,5.146,3.125,4.768,6.136
		C138.176,293.522,135.809,295.555,133.079,295.555z"/>
	<path d="M153.438,296.848c-3.808,0-7.648-0.131-11.413-0.388c-3.028-0.207-5.315-2.83-5.107-5.858
		c0.206-3.027,2.832-5.317,5.857-5.107c3.516,0.241,7.105,0.363,10.664,0.363c3.035,0,5.495,2.46,5.495,5.495
		S156.472,296.848,153.438,296.848z"/>
	<path d="M291.353,158.935c-1.407,0-2.813-0.537-3.886-1.61c-2.146-2.146-2.146-5.625,0-7.771l22.066-22.066
		c2.146-2.146,5.625-2.146,7.771,0c2.146,2.146,2.146,5.625,0,7.771l-22.066,22.066
		C294.165,158.399,292.759,158.935,291.353,158.935z"/>
	<path d="M291.353,158.935c-1.407,0-2.813-0.537-3.886-1.61l-22.066-22.066c-2.146-2.146-2.146-5.625,0-7.771
		c2.146-2.146,5.625-2.146,7.771,0l22.066,22.066c2.146,2.146,2.146,5.625,0,7.771C294.165,158.399,292.759,158.935,291.353,158.935
		z"/>
	<path d="M4.495,197.551c-1.406,0-2.813-0.537-3.885-1.609c-2.146-2.146-2.146-5.625,0-7.771l22.066-22.066
		c2.146-2.145,5.625-2.145,7.771,0c2.146,2.146,2.146,5.625,0,7.771L8.38,195.942C7.308,197.015,5.901,197.551,4.495,197.551z"/>
	<path d="M48.627,197.551c-1.407,0-2.813-0.537-3.885-1.609l-22.066-22.066c-2.146-2.146-2.146-5.626,0-7.771
		c2.146-2.146,5.625-2.145,7.771,0l22.066,22.066c2.146,2.146,2.146,5.626,0,7.771C51.439,197.015,50.033,197.551,48.627,197.551z"
		/>
	<path d="M241.705,307.881l-0.398-0.001c-0.677-0.004-1.325-0.129-1.922-0.356c-0.612,0.185-1.264,0.264-1.943,0.222
		c-0.515-0.033-1.029-0.071-1.541-0.116c-0.672-0.059-1.307-0.236-1.882-0.51c-0.623,0.134-1.281,0.162-1.95,0.065
		c-0.511-0.074-1.02-0.155-1.528-0.241c-0.668-0.113-1.288-0.343-1.842-0.664c-0.635,0.082-1.294,0.057-1.952-0.096
		c-0.505-0.117-1.009-0.239-1.509-0.367c-0.653-0.169-1.249-0.447-1.771-0.811c-0.638,0.034-1.292-0.049-1.937-0.256
		c-0.498-0.159-0.994-0.324-1.486-0.495c-0.636-0.222-1.206-0.549-1.697-0.955c-0.639-0.021-1.285-0.155-1.912-0.414
		c-0.481-0.199-0.959-0.403-1.435-0.613c-0.618-0.274-1.16-0.647-1.617-1.093c-0.635-0.074-1.269-0.261-1.872-0.571
		c-0.46-0.236-0.916-0.477-1.369-0.724c-0.595-0.323-1.107-0.741-1.526-1.224c-0.627-0.125-1.242-0.364-1.817-0.721
		c-0.442-0.275-0.879-0.553-1.314-0.839c-0.562-0.37-1.036-0.826-1.413-1.338c-0.614-0.176-1.206-0.464-1.749-0.866
		c-0.417-0.309-0.83-0.623-1.239-0.941c-0.532-0.415-0.966-0.908-1.301-1.451c-0.599-0.227-1.168-0.562-1.678-1.01
		c-0.385-0.337-0.767-0.68-1.145-1.027c-0.499-0.458-0.895-0.987-1.185-1.557c-0.577-0.274-1.115-0.654-1.585-1.138
		c-0.361-0.371-0.716-0.747-1.067-1.127c-0.457-0.496-0.806-1.052-1.048-1.641c-0.552-0.32-1.058-0.742-1.488-1.264
		c-0.327-0.398-0.65-0.799-0.969-1.205c-0.417-0.531-0.72-1.116-0.913-1.723c-0.526-0.365-0.997-0.828-1.383-1.385
		c-0.292-0.421-0.579-0.845-0.862-1.272c-0.374-0.564-0.63-1.173-0.773-1.796c-0.493-0.405-0.923-0.903-1.263-1.488
		c-0.257-0.444-0.509-0.891-0.757-1.341c-0.327-0.593-0.532-1.221-0.625-1.853c-0.458-0.445-0.846-0.977-1.136-1.586
		c-0.22-0.464-0.436-0.93-0.646-1.4c-0.276-0.617-0.429-1.257-0.469-1.895c-0.42-0.48-0.763-1.041-1.001-1.672
		c-0.184-0.485-0.362-0.972-0.533-1.462c-0.223-0.636-0.321-1.286-0.31-1.923c-0.381-0.515-0.677-1.105-0.864-1.756
		c-0.142-0.494-0.278-0.99-0.409-1.488c-0.172-0.656-0.217-1.315-0.152-1.952c-0.337-0.544-0.584-1.157-0.716-1.821
		c-0.1-0.503-0.195-1.008-0.284-1.515c-0.118-0.668-0.109-1.329,0.008-1.958c-0.29-0.568-0.486-1.197-0.564-1.868
		c-0.059-0.511-0.113-1.023-0.16-1.537c-0.063-0.674,0-1.331,0.168-1.948c-0.244-0.591-0.388-1.234-0.411-1.91
		c-0.017-0.511-0.029-1.022-0.035-1.534c-0.008-0.678,0.107-1.328,0.323-1.93c-0.195-0.608-0.286-1.26-0.255-1.935
		c0.025-0.518,0.054-1.034,0.091-1.549c0.048-0.672,0.215-1.307,0.478-1.886c-0.146-0.623-0.184-1.282-0.097-1.954
		c0.066-0.512,0.138-1.023,0.215-1.531c0.102-0.667,0.32-1.288,0.631-1.845c-0.094-0.632-0.079-1.291,0.061-1.953
		c0.108-0.506,0.222-1.01,0.341-1.512c0.156-0.659,0.425-1.261,0.782-1.792c-0.041-0.638,0.028-1.294,0.223-1.943
		c0.149-0.497,0.304-0.99,0.465-1.482c0.21-0.644,0.528-1.223,0.928-1.723c0.01-0.64,0.133-1.289,0.381-1.921
		c0.191-0.486,0.387-0.968,0.589-1.447c0.263-0.622,0.627-1.17,1.064-1.634c0.063-0.635,0.239-1.272,0.537-1.879
		c0.229-0.465,0.462-0.926,0.701-1.385c0.313-0.601,0.722-1.12,1.199-1.549c0.115-0.628,0.343-1.247,0.689-1.827
		c0.266-0.445,0.538-0.888,0.815-1.326c0.361-0.57,0.809-1.052,1.316-1.438c0.166-0.617,0.444-1.215,0.837-1.765
		c0.302-0.422,0.608-0.84,0.921-1.254c0.405-0.539,0.891-0.982,1.427-1.325c0.216-0.601,0.541-1.174,0.977-1.69
		c0.334-0.394,0.672-0.784,1.014-1.171c0.449-0.505,0.969-0.908,1.533-1.207c0.264-0.582,0.634-1.127,1.112-1.606
		c0.361-0.363,0.727-0.721,1.097-1.076c0.49-0.471,1.045-0.833,1.634-1.087c0.31-0.557,0.723-1.069,1.237-1.508
		c0.392-0.335,0.789-0.664,1.189-0.99c0.524-0.425,1.103-0.739,1.707-0.943c0.355-0.531,0.808-1.008,1.356-1.403
		c0.418-0.301,0.84-0.598,1.265-0.89c0.557-0.382,1.161-0.648,1.78-0.802c0.396-0.499,0.886-0.937,1.464-1.286
		c0.444-0.268,0.891-0.531,1.343-0.789c0.583-0.332,1.202-0.546,1.828-0.648c0.436-0.467,0.961-0.864,1.567-1.164
		c0.46-0.229,0.923-0.452,1.389-0.67c0.612-0.286,1.252-0.451,1.888-0.502c0.472-0.428,1.028-0.78,1.654-1.03
		c0.482-0.192,0.966-0.378,1.453-0.559c0.632-0.233,1.264-0.315,1.917-0.342c0.507-0.389,1.091-0.696,1.737-0.893
		c0.492-0.151,0.986-0.295,1.483-0.435c0.654-0.184,1.312-0.242,1.952-0.187c0.537-0.346,1.144-0.603,1.804-0.747
		c0.504-0.109,1.01-0.214,1.519-0.312c0.663-0.127,1.323-0.131,1.953-0.024c0.565-0.301,1.193-0.508,1.865-0.597
		c0.507-0.067,1.016-0.129,1.528-0.185c0.672-0.073,1.332-0.023,1.952,0.134c0.585-0.253,1.226-0.408,1.9-0.443
		c0.513-0.026,1.027-0.046,1.544-0.061c0.663-0.016,1.325,0.085,1.93,0.292c0.604-0.206,1.257-0.312,1.928-0.288
		c0.518,0.015,1.034,0.037,1.55,0.064c0.673,0.037,1.311,0.192,1.895,0.445c0.621-0.155,1.279-0.204,1.95-0.131
		c0.517,0.058,1.031,0.121,1.543,0.191c0.667,0.091,1.29,0.298,1.85,0.599c0.632-0.105,1.294-0.1,1.958,0.029
		c0.505,0.098,1.008,0.202,1.509,0.312c0.662,0.145,1.27,0.404,1.808,0.751c0.638-0.05,1.296,0.006,1.948,0.19
		c0.496,0.14,0.99,0.286,1.482,0.438c0.648,0.2,1.232,0.507,1.738,0.899c0.003,0,0.005,0,0.008,0c0.639,0,1.288,0.112,1.923,0.348
		c0.484,0.181,0.966,0.367,1.445,0.559c0.63,0.253,1.188,0.608,1.661,1.04c0.638,0.052,1.278,0.217,1.891,0.506
		c0.468,0.22,0.932,0.446,1.394,0.677c0.606,0.303,1.133,0.703,1.569,1.172c0.632,0.104,1.255,0.321,1.843,0.66
		c0.447,0.257,0.892,0.52,1.334,0.788c0.579,0.351,1.069,0.792,1.465,1.294c0.621,0.156,1.225,0.423,1.783,0.809
		c0.423,0.292,0.842,0.588,1.257,0.889c0.55,0.398,1.005,0.879,1.359,1.414c0.605,0.205,1.183,0.521,1.707,0.948
		c0.4,0.327,0.795,0.659,1.188,0.995c0.513,0.44,0.925,0.954,1.233,1.512c0.586,0.254,1.138,0.615,1.625,1.084
		c0.37,0.357,0.736,0.718,1.099,1.083c0.477,0.481,0.848,1.028,1.111,1.612c0.563,0.301,1.082,0.705,1.53,1.211
		c0.338,0.385,0.673,0.772,1.003,1.164c0.438,0.519,0.764,1.095,0.979,1.7c0.537,0.346,1.023,0.793,1.428,1.334
		c0.307,0.412,0.61,0.826,0.908,1.246c0.392,0.551,0.668,1.149,0.833,1.767c0.507,0.389,0.954,0.871,1.312,1.443
		c0.273,0.436,0.542,0.875,0.805,1.317c0.346,0.581,0.572,1.2,0.686,1.828c0.473,0.428,0.88,0.947,1.191,1.548
		c0.236,0.454,0.467,0.913,0.692,1.375c0.298,0.607,0.473,1.243,0.535,1.879c0.436,0.465,0.796,1.013,1.058,1.635
		c0.199,0.474,0.392,0.952,0.579,1.431c0.248,0.632,0.369,1.28,0.379,1.921c0.398,0.5,0.714,1.078,0.923,1.722
		c0.159,0.489,0.313,0.983,0.461,1.477c0.195,0.65,0.262,1.307,0.22,1.945c0.354,0.53,0.622,1.132,0.777,1.79
		c0.119,0.502,0.231,1.007,0.337,1.513c0.14,0.662,0.154,1.321,0.059,1.954c0.31,0.559,0.528,1.182,0.628,1.851
		c0.076,0.506,0.147,1.015,0.212,1.525c0.086,0.672,0.046,1.333-0.101,1.956c0.263,0.581,0.429,1.217,0.475,1.891
		c0.035,0.512,0.064,1.027,0.087,1.542c0.023,0.52-0.026,1.027-0.14,1.509c0.135,0.476,0.207,0.98,0.207,1.499
		c0,0.516-0.006,1.03-0.017,1.543c-0.016,0.676-0.152,1.32-0.389,1.913c0.174,0.613,0.244,1.268,0.189,1.94
		c-0.041,0.517-0.089,1.033-0.143,1.547c-0.07,0.671-0.259,1.302-0.543,1.872c0.123,0.626,0.14,1.285,0.031,1.953
		c-0.083,0.509-0.173,1.017-0.268,1.523c-0.125,0.665-0.365,1.28-0.696,1.828c0.072,0.635,0.034,1.296-0.131,1.953
		c-0.125,0.5-0.256,0.999-0.392,1.495c-0.179,0.653-0.469,1.246-0.844,1.764c0.02,0.64-0.072,1.295-0.291,1.937
		c-0.165,0.487-0.337,0.973-0.513,1.456c-0.233,0.639-0.573,1.208-0.99,1.696c-0.033,0.639-0.178,1.284-0.448,1.906
		c-0.206,0.475-0.418,0.947-0.635,1.416c-0.284,0.615-0.668,1.152-1.122,1.602c-0.085,0.633-0.283,1.262-0.603,1.858
		c-0.245,0.459-0.496,0.914-0.752,1.365c-0.334,0.587-0.758,1.089-1.247,1.498c-0.136,0.625-0.386,1.236-0.753,1.805
		c-0.281,0.435-0.566,0.866-0.858,1.294c-0.38,0.558-0.846,1.025-1.366,1.393c-0.187,0.612-0.486,1.201-0.899,1.738
		c-0.313,0.407-0.63,0.811-0.952,1.21c-0.425,0.528-0.929,0.957-1.48,1.284c-0.236,0.592-0.58,1.153-1.034,1.654
		c-0.346,0.383-0.698,0.761-1.052,1.134c-0.466,0.491-1.001,0.876-1.575,1.156c-0.283,0.571-0.672,1.103-1.165,1.565
		c-0.376,0.353-0.757,0.701-1.142,1.045c-0.504,0.451-1.068,0.791-1.663,1.023c-0.329,0.548-0.76,1.045-1.289,1.467
		c-0.403,0.32-0.81,0.636-1.222,0.948c-0.539,0.408-1.128,0.701-1.74,0.884c-0.372,0.518-0.842,0.979-1.403,1.354
		c-0.427,0.286-0.859,0.568-1.292,0.845c-0.57,0.363-1.182,0.607-1.806,0.741c-0.415,0.487-0.921,0.908-1.513,1.238
		c-0.447,0.249-0.898,0.493-1.351,0.732c-0.599,0.316-1.23,0.511-1.864,0.592c-0.453,0.451-0.994,0.831-1.61,1.111
		c-0.467,0.211-0.936,0.418-1.408,0.619c-0.621,0.265-1.264,0.407-1.901,0.436c-0.488,0.412-1.058,0.746-1.694,0.974
		c-0.484,0.174-0.972,0.342-1.461,0.504c-0.643,0.213-1.298,0.293-1.932,0.278c-0.52,0.371-1.115,0.657-1.767,0.833
		c-0.498,0.134-1,0.262-1.503,0.384c-0.657,0.16-1.315,0.195-1.951,0.118c-0.548,0.327-1.162,0.562-1.827,0.684
		c-0.507,0.092-1.016,0.178-1.528,0.259c-0.667,0.105-1.328,0.085-1.954-0.042c-0.574,0.281-1.206,0.466-1.879,0.531
		c-0.511,0.05-1.025,0.095-1.539,0.134c-0.674,0.048-1.331-0.023-1.943-0.202c-0.595,0.233-1.241,0.366-1.918,0.378
		C242.464,307.878,242.085,307.881,241.705,307.881z M236.374,296.659c0.16,0,0.322,0.008,0.485,0.021
		c0.427,0.038,0.857,0.069,1.287,0.097c0.562,0.036,1.098,0.155,1.599,0.345c0.504-0.152,1.037-0.233,1.59-0.233
		c0.01,0,0.019,0,0.029,0l0.341,0.001c0.321,0,0.64-0.003,0.959-0.008c0.559-0.013,1.109,0.067,1.623,0.216
		c0.498-0.196,1.036-0.321,1.597-0.363c0.43-0.032,0.859-0.069,1.285-0.111c0.56-0.057,1.111-0.024,1.635,0.083
		c0.481-0.235,1.005-0.403,1.561-0.491c0.425-0.067,0.848-0.138,1.269-0.215c0.556-0.101,1.107-0.116,1.639-0.051
		c0.46-0.274,0.968-0.485,1.516-0.617c0.418-0.102,0.831-0.207,1.244-0.318c0.545-0.146,1.096-0.205,1.628-0.186
		c0.437-0.312,0.927-0.564,1.462-0.741c0.409-0.136,0.815-0.277,1.22-0.421c0.527-0.189,1.065-0.292,1.597-0.317
		c0.408-0.344,0.874-0.634,1.39-0.855c0.396-0.169,0.789-0.342,1.179-0.52c0.511-0.231,1.04-0.379,1.568-0.447
		c0.378-0.376,0.818-0.704,1.314-0.966c0.381-0.202,0.76-0.407,1.136-0.616c0.491-0.273,1.007-0.464,1.528-0.575
		c0.347-0.407,0.76-0.77,1.235-1.072c0.362-0.23,0.721-0.465,1.078-0.703c0.469-0.314,0.968-0.546,1.481-0.7
		c0.312-0.434,0.695-0.83,1.144-1.17c0.342-0.259,0.681-0.523,1.017-0.79c0.442-0.35,0.92-0.623,1.419-0.818
		c0.277-0.459,0.625-0.885,1.045-1.261c0.32-0.286,0.636-0.576,0.95-0.87c0.412-0.387,0.868-0.697,1.35-0.932
		c0.239-0.48,0.552-0.933,0.94-1.341c0.295-0.311,0.588-0.626,0.877-0.944c0.379-0.418,0.808-0.765,1.27-1.039
		c0.198-0.496,0.472-0.972,0.824-1.409c0.272-0.337,0.539-0.678,0.803-1.021c0.343-0.447,0.742-0.826,1.179-1.135
		c0.158-0.514,0.394-1.012,0.712-1.48c0.241-0.355,0.478-0.713,0.712-1.073c0.306-0.474,0.672-0.884,1.083-1.229
		c0.115-0.526,0.31-1.043,0.59-1.535c0.211-0.372,0.418-0.746,0.619-1.123c0.266-0.498,0.599-0.939,0.981-1.318
		c0.072-0.531,0.224-1.061,0.46-1.574c0.18-0.39,0.357-0.783,0.527-1.178c0.225-0.518,0.52-0.983,0.869-1.391
		c0.028-0.533,0.134-1.072,0.326-1.601c0.149-0.407,0.294-0.817,0.433-1.228c0.18-0.531,0.435-1.018,0.747-1.451
		c-0.016-0.535,0.046-1.081,0.195-1.624c0.114-0.415,0.223-0.831,0.328-1.25c0.136-0.546,0.35-1.051,0.626-1.509
		c-0.06-0.531-0.043-1.081,0.061-1.634c0.079-0.421,0.154-0.845,0.224-1.27c0.091-0.556,0.262-1.08,0.501-1.559
		c-0.104-0.526-0.132-1.078-0.072-1.639c0.044-0.424,0.084-0.85,0.118-1.278c0.045-0.563,0.174-1.1,0.372-1.599
		c-0.146-0.516-0.219-1.062-0.206-1.626c0.01-0.429,0.015-0.86,0.015-1.293c0-0.434,0.05-0.856,0.145-1.261
		c-0.113-0.4-0.182-0.818-0.202-1.251c-0.019-0.431-0.043-0.861-0.073-1.29c-0.039-0.563,0.01-1.113,0.133-1.635
		c-0.22-0.486-0.372-1.013-0.443-1.57c-0.055-0.429-0.114-0.857-0.178-1.284c-0.084-0.557-0.081-1.106-0.001-1.635
		c-0.259-0.467-0.454-0.982-0.571-1.532c-0.089-0.42-0.182-0.839-0.281-1.256c-0.129-0.549-0.173-1.098-0.136-1.634
		c-0.297-0.445-0.533-0.94-0.694-1.478c-0.123-0.413-0.251-0.822-0.384-1.231c-0.175-0.536-0.261-1.08-0.27-1.616
		c-0.333-0.418-0.609-0.893-0.814-1.416c-0.156-0.398-0.316-0.795-0.481-1.188c-0.218-0.52-0.35-1.054-0.403-1.587
		c-0.365-0.39-0.678-0.839-0.925-1.343c-0.189-0.387-0.383-0.77-0.58-1.151c-0.259-0.499-0.434-1.02-0.529-1.546
		c-0.396-0.359-0.746-0.782-1.034-1.265c-0.219-0.368-0.443-0.735-0.671-1.098c-0.299-0.478-0.517-0.983-0.655-1.501
		c-0.425-0.326-0.808-0.719-1.135-1.177c-0.25-0.351-0.504-0.699-0.762-1.043c-0.337-0.451-0.593-0.937-0.773-1.441
		c-0.447-0.288-0.86-0.648-1.222-1.076c-0.28-0.33-0.561-0.659-0.848-0.983c-0.373-0.423-0.67-0.888-0.89-1.377
		c-0.471-0.252-0.913-0.578-1.309-0.977c-0.304-0.306-0.611-0.609-0.921-0.908c-0.407-0.391-0.74-0.83-0.999-1.299
		c-0.493-0.213-0.961-0.504-1.39-0.871c-0.326-0.28-0.656-0.555-0.988-0.827c-0.438-0.357-0.805-0.768-1.102-1.216
		c-0.506-0.172-0.994-0.421-1.45-0.751c-0.35-0.254-0.705-0.504-1.061-0.75c-0.464-0.32-0.862-0.698-1.194-1.118
		c-0.52-0.131-1.029-0.34-1.512-0.633c-0.368-0.224-0.74-0.443-1.113-0.658c-0.489-0.281-0.918-0.626-1.283-1.018
		c-0.528-0.087-1.052-0.255-1.557-0.506c-0.386-0.193-0.773-0.381-1.164-0.564c-0.511-0.24-0.967-0.55-1.363-0.911
		c-0.534-0.043-1.07-0.167-1.594-0.376c-0.4-0.16-0.802-0.316-1.207-0.467c-0.528-0.198-1.008-0.467-1.432-0.795
		c-0.002,0-0.004,0-0.005,0c-0.535,0-1.08-0.079-1.618-0.244c-0.411-0.126-0.823-0.248-1.239-0.365
		c-0.541-0.153-1.04-0.381-1.489-0.671c-0.531,0.044-1.078,0.01-1.628-0.11c-0.421-0.092-0.845-0.18-1.269-0.263
		c-0.552-0.108-1.067-0.295-1.539-0.547c-0.531,0.089-1.085,0.1-1.647,0.023c-0.422-0.058-0.846-0.109-1.272-0.156
		c-0.56-0.063-1.091-0.206-1.581-0.419c-0.522,0.131-1.072,0.186-1.636,0.157c-0.427-0.023-0.855-0.041-1.285-0.054
		c-0.565-0.016-1.107-0.118-1.616-0.291c-0.507,0.173-1.049,0.273-1.614,0.288c-0.432,0.012-0.862,0.028-1.291,0.05
		c-0.566,0.027-1.111-0.029-1.631-0.16c-0.491,0.212-1.021,0.356-1.579,0.417c-0.431,0.047-0.86,0.099-1.288,0.156
		c-0.557,0.074-1.106,0.061-1.633-0.028c-0.473,0.252-0.992,0.439-1.546,0.546c-0.421,0.081-0.842,0.167-1.259,0.259
		c-0.551,0.12-1.101,0.151-1.634,0.107c-0.448,0.288-0.946,0.516-1.486,0.667c-0.415,0.117-0.828,0.237-1.239,0.363
		c-0.536,0.164-1.078,0.242-1.611,0.242c-0.003,0-0.006,0-0.009,0c-0.427,0.328-0.909,0.597-1.44,0.794
		c-0.401,0.148-0.799,0.301-1.195,0.459c-0.524,0.209-1.06,0.332-1.593,0.374c-0.395,0.358-0.85,0.664-1.359,0.902
		c-0.389,0.182-0.774,0.367-1.158,0.558c-0.504,0.251-1.028,0.417-1.555,0.503c-0.368,0.393-0.802,0.739-1.294,1.019
		c-0.369,0.21-0.735,0.425-1.098,0.645c-0.483,0.292-0.993,0.5-1.514,0.631c-0.333,0.419-0.733,0.796-1.198,1.115
		c-0.354,0.242-0.705,0.489-1.052,0.74c-0.458,0.33-0.949,0.579-1.456,0.751c-0.298,0.445-0.667,0.855-1.105,1.211
		c-0.334,0.27-0.663,0.546-0.989,0.823c-0.429,0.366-0.899,0.655-1.391,0.867c-0.259,0.465-0.59,0.9-0.994,1.287
		c-0.312,0.301-0.621,0.604-0.927,0.91c-0.398,0.4-0.843,0.725-1.316,0.977c-0.222,0.489-0.52,0.953-0.895,1.376
		c-0.285,0.321-0.567,0.646-0.844,0.974c-0.365,0.431-0.782,0.792-1.233,1.081c-0.182,0.506-0.442,0.994-0.783,1.445
		c-0.257,0.342-0.51,0.687-0.759,1.035c-0.328,0.46-0.714,0.853-1.141,1.178c-0.14,0.52-0.36,1.027-0.662,1.506
		c-0.229,0.361-0.453,0.726-0.672,1.093c-0.29,0.485-0.643,0.909-1.042,1.268c-0.096,0.526-0.273,1.047-0.533,1.547
		c-0.199,0.382-0.393,0.765-0.582,1.151c-0.25,0.507-0.566,0.959-0.935,1.35c-0.054,0.536-0.187,1.073-0.408,1.595
		c-0.167,0.393-0.328,0.79-0.484,1.188c-0.206,0.526-0.485,1.001-0.82,1.42c-0.009,0.537-0.097,1.081-0.273,1.618
		c-0.133,0.409-0.262,0.821-0.387,1.235c-0.162,0.539-0.4,1.034-0.698,1.478c0.035,0.534-0.009,1.082-0.139,1.63
		c-0.099,0.418-0.194,0.835-0.283,1.255c-0.118,0.552-0.313,1.065-0.574,1.533c0.079,0.531,0.081,1.083-0.005,1.641
		c-0.065,0.424-0.124,0.849-0.18,1.277c-0.072,0.558-0.226,1.086-0.446,1.573c0.122,0.524,0.169,1.075,0.129,1.641
		c-0.03,0.425-0.055,0.853-0.074,1.281c-0.026,0.563-0.137,1.103-0.319,1.607c0.164,0.509,0.255,1.051,0.261,1.612
		c0.006,0.434,0.015,0.867,0.03,1.298c0.019,0.563-0.047,1.11-0.188,1.626c0.204,0.495,0.338,1.029,0.39,1.589
		c0.04,0.429,0.084,0.857,0.133,1.283c0.065,0.56,0.043,1.112-0.055,1.639c0.243,0.476,0.42,0.995,0.517,1.549
		c0.075,0.426,0.155,0.85,0.239,1.273c0.11,0.551,0.133,1.1,0.079,1.631c0.282,0.454,0.5,0.957,0.643,1.501
		c0.109,0.418,0.223,0.833,0.341,1.248c0.155,0.54,0.224,1.085,0.213,1.619c0.319,0.432,0.58,0.919,0.768,1.453
		c0.142,0.403,0.288,0.804,0.439,1.203c0.2,0.526,0.312,1.064,0.347,1.598c0.351,0.401,0.649,0.862,0.879,1.375
		c0.175,0.391,0.355,0.78,0.539,1.167c0.241,0.508,0.398,1.036,0.476,1.564c0.383,0.371,0.717,0.805,0.987,1.297
		c0.207,0.376,0.418,0.751,0.634,1.122c0.283,0.487,0.482,1,0.603,1.522c0.412,0.339,0.782,0.745,1.092,1.213
		c0.239,0.361,0.481,0.718,0.727,1.072c0.321,0.462,0.56,0.956,0.723,1.465c0.441,0.306,0.844,0.682,1.192,1.125
		c0.264,0.337,0.533,0.672,0.806,1.003c0.359,0.436,0.638,0.909,0.842,1.405c0.465,0.27,0.898,0.612,1.281,1.028
		c0.29,0.314,0.584,0.624,0.882,0.931c0.393,0.405,0.712,0.855,0.955,1.334c0.483,0.229,0.94,0.534,1.355,0.914
		c0.319,0.292,0.641,0.581,0.967,0.867c0.423,0.372,0.775,0.794,1.056,1.249c0.502,0.191,0.986,0.459,1.433,0.807
		c0.337,0.263,0.678,0.522,1.021,0.776c0.454,0.337,0.841,0.729,1.159,1.162c0.518,0.149,1.022,0.378,1.496,0.689
		c0.357,0.235,0.717,0.464,1.08,0.69c0.479,0.298,0.897,0.658,1.249,1.063c0.526,0.105,1.043,0.29,1.539,0.56
		c0.379,0.205,0.76,0.407,1.144,0.604c0.502,0.257,0.947,0.582,1.33,0.956c0.534,0.063,1.067,0.205,1.585,0.434
		c0.392,0.174,0.785,0.342,1.182,0.506c0.522,0.216,0.993,0.502,1.407,0.845c0.54,0.018,1.085,0.117,1.622,0.304
		c0.403,0.141,0.807,0.275,1.215,0.405c0.537,0.171,1.029,0.418,1.469,0.723c0.533-0.026,1.086,0.027,1.634,0.168
		c0.413,0.107,0.828,0.208,1.246,0.304c0.549,0.127,1.06,0.332,1.522,0.601c0.528-0.069,1.078-0.063,1.632,0.033
		c0.423,0.071,0.848,0.139,1.274,0.201c0.558,0.081,1.085,0.244,1.569,0.473C235.594,296.702,235.98,296.659,236.374,296.659z"/>
	<path d="M241.705,329.947c-48.657,0-88.242-39.585-88.242-88.242s39.586-88.242,88.242-88.242s88.242,39.586,88.242,88.242
		S290.362,329.947,241.705,329.947z M241.705,164.452c-42.598,0-77.253,34.656-77.253,77.253s34.656,77.253,77.253,77.253
		s77.253-34.655,77.253-77.253S284.302,164.452,241.705,164.452z"/>
	<path d="M247.221,252.716h-22.066c-3.035,0-5.495-2.46-5.495-5.495s2.46-5.495,5.495-5.495h22.066c3.035,0,5.495,2.46,5.495,5.495
		S250.256,252.716,247.221,252.716z"/>
	<path d="M260.852,280.299h-35.698c-2.306,0-4.367-1.44-5.159-3.605c-0.793-2.165-0.149-4.595,1.611-6.085
		c7.811-6.608,12.332-23.439,6.612-37.962c-2.507-6.372-1.95-13.673,1.489-19.534c3.173-5.409,8.47-8.983,14.531-9.804
		c0.978-0.132,1.981-0.199,2.983-0.199c12.155,0,22.044,9.889,22.044,22.044c0,3.035-2.46,5.495-5.495,5.495
		c-3.035,0-5.495-2.46-5.495-5.495c0-6.096-4.959-11.055-11.055-11.055c-0.513,0-1.021,0.034-1.511,0.1
		c-3.685,0.499-5.67,3.018-6.525,4.474c-1.745,2.974-2.022,6.693-0.741,9.947c5.255,13.342,4.13,29.181-2.057,40.687h24.465
		c3.034,0,5.495,2.46,5.495,5.495S263.887,280.299,260.852,280.299z"/>
	<path d="M87.242,153.419l-0.397-0.001c-0.677-0.003-1.325-0.129-1.923-0.357c-0.61,0.185-1.263,0.265-1.937,0.222
		c-0.517-0.033-1.031-0.071-1.544-0.116c-0.673-0.059-1.307-0.237-1.883-0.511c-0.624,0.135-1.284,0.162-1.953,0.065
		c-0.511-0.074-1.019-0.155-1.526-0.241c-0.668-0.113-1.286-0.343-1.84-0.664c-0.634,0.083-1.294,0.056-1.954-0.096
		c-0.503-0.116-1.003-0.238-1.502-0.366c-0.656-0.168-1.254-0.447-1.778-0.813c-0.636,0.03-1.293-0.05-1.937-0.256
		c-0.494-0.158-0.985-0.322-1.474-0.491c-0.641-0.222-1.215-0.55-1.708-0.959c-0.64-0.021-1.286-0.156-1.913-0.415
		c-0.48-0.198-0.956-0.401-1.429-0.61c-0.62-0.273-1.164-0.648-1.621-1.095c-0.635-0.074-1.269-0.261-1.872-0.571
		c-0.461-0.237-0.919-0.479-1.374-0.727c-0.593-0.323-1.104-0.74-1.522-1.222c-0.627-0.126-1.242-0.364-1.817-0.722
		c-0.438-0.273-0.874-0.551-1.306-0.833c-0.566-0.371-1.042-0.829-1.42-1.344c-0.615-0.176-1.208-0.465-1.751-0.868
		c-0.414-0.307-0.824-0.619-1.23-0.934c-0.535-0.416-0.972-0.911-1.307-1.456c-0.597-0.226-1.164-0.56-1.673-1.006
		c-0.389-0.341-0.774-0.686-1.155-1.036c-0.497-0.456-0.89-0.983-1.18-1.551c-0.578-0.274-1.116-0.654-1.588-1.14
		c-0.357-0.369-0.712-0.742-1.061-1.12c-0.46-0.496-0.811-1.055-1.053-1.647c-0.552-0.32-1.058-0.742-1.488-1.264
		c-0.328-0.398-0.65-0.8-0.969-1.206c-0.417-0.531-0.72-1.116-0.913-1.723c-0.525-0.364-0.994-0.826-1.38-1.38
		c-0.294-0.423-0.582-0.849-0.867-1.279c-0.373-0.564-0.628-1.172-0.772-1.794c-0.493-0.405-0.924-0.904-1.263-1.489
		c-0.258-0.445-0.511-0.892-0.758-1.343c-0.325-0.592-0.529-1.217-0.622-1.848c-0.458-0.445-0.848-0.977-1.137-1.588
		c-0.22-0.464-0.435-0.93-0.645-1.399c-0.276-0.617-0.429-1.257-0.469-1.894c-0.42-0.48-0.763-1.043-1.003-1.676
		c-0.182-0.481-0.358-0.965-0.529-1.45c-0.226-0.639-0.325-1.292-0.312-1.932c-0.381-0.514-0.677-1.104-0.864-1.755
		c-0.142-0.495-0.278-0.992-0.409-1.491c-0.171-0.656-0.217-1.314-0.152-1.95c-0.337-0.543-0.583-1.154-0.716-1.817
		c-0.101-0.506-0.197-1.013-0.286-1.522c-0.117-0.667-0.108-1.326,0.009-1.954c-0.29-0.568-0.485-1.197-0.564-1.868
		c-0.059-0.512-0.113-1.025-0.16-1.541c-0.062-0.672,0.001-1.328,0.168-1.943c-0.243-0.59-0.387-1.232-0.411-1.907
		c-0.017-0.513-0.029-1.029-0.035-1.546c-0.007-0.675,0.108-1.323,0.323-1.922c-0.195-0.608-0.286-1.26-0.255-1.936
		c0.024-0.515,0.054-1.029,0.09-1.542c0.047-0.674,0.214-1.312,0.478-1.894c-0.145-0.622-0.184-1.279-0.098-1.95
		c0.066-0.512,0.137-1.023,0.215-1.532c0.102-0.669,0.321-1.292,0.632-1.85c-0.094-0.632-0.079-1.291,0.062-1.952
		c0.108-0.506,0.221-1.01,0.341-1.512c0.156-0.658,0.425-1.26,0.781-1.79c-0.042-0.639,0.027-1.296,0.223-1.945
		c0.149-0.495,0.304-0.988,0.464-1.478c0.211-0.646,0.529-1.226,0.93-1.727c0.01-0.64,0.134-1.29,0.381-1.921
		c0.19-0.484,0.385-0.964,0.587-1.441c0.262-0.623,0.627-1.173,1.065-1.637c0.063-0.637,0.24-1.274,0.539-1.883
		c0.229-0.465,0.463-0.928,0.702-1.386c0.313-0.599,0.721-1.117,1.197-1.544c0.115-0.628,0.343-1.248,0.69-1.828
		c0.266-0.445,0.537-0.886,0.813-1.323c0.361-0.572,0.81-1.055,1.319-1.442c0.166-0.617,0.444-1.216,0.838-1.766
		c0.301-0.42,0.606-0.837,0.917-1.25c0.406-0.54,0.892-0.983,1.429-1.327c0.216-0.601,0.541-1.175,0.978-1.691
		c0.333-0.393,0.67-0.783,1.012-1.168c0.449-0.507,0.971-0.91,1.535-1.21c0.264-0.582,0.635-1.127,1.113-1.606
		c0.364-0.365,0.731-0.725,1.104-1.082c0.488-0.467,1.04-0.827,1.626-1.079c0.311-0.559,0.725-1.072,1.241-1.511
		c0.39-0.333,0.785-0.661,1.183-0.985c0.525-0.427,1.105-0.741,1.711-0.946c0.355-0.531,0.809-1.008,1.358-1.403
		c0.417-0.3,0.837-0.595,1.261-0.887c0.558-0.383,1.161-0.648,1.781-0.803c0.396-0.5,0.888-0.939,1.466-1.288
		c0.44-0.266,0.883-0.526,1.33-0.782c0.587-0.336,1.21-0.552,1.84-0.655c0.436-0.465,0.961-0.863,1.566-1.164
		c0.46-0.229,0.924-0.453,1.391-0.671c0.612-0.286,1.25-0.45,1.886-0.501c0.473-0.429,1.03-0.782,1.658-1.032
		c0.478-0.19,0.958-0.375,1.441-0.554c0.631-0.235,1.277-0.346,1.913-0.346c0.004,0,0.008,0,0.012,0
		c0.507-0.389,1.091-0.696,1.739-0.893c0.493-0.151,0.988-0.296,1.486-0.435c0.652-0.182,1.308-0.24,1.945-0.185
		c0.537-0.346,1.145-0.604,1.806-0.747c0.504-0.109,1.01-0.213,1.517-0.311c0.664-0.129,1.323-0.131,1.952-0.025
		c0.564-0.301,1.19-0.507,1.861-0.597c0.51-0.068,1.022-0.13,1.535-0.186c0.673-0.074,1.329-0.023,1.948,0.134
		c0.586-0.253,1.226-0.408,1.901-0.442c0.513-0.027,1.027-0.047,1.543-0.061c0.679-0.021,1.327,0.085,1.931,0.292
		c0.604-0.205,1.259-0.31,1.928-0.288c0.517,0.015,1.032,0.036,1.546,0.063c0.674,0.036,1.314,0.191,1.899,0.445
		c0.62-0.156,1.277-0.206,1.95-0.131c0.512,0.057,1.022,0.12,1.531,0.188c0.672,0.09,1.298,0.298,1.862,0.6
		c0.632-0.105,1.291-0.101,1.954,0.028c0.506,0.098,1.01,0.203,1.513,0.313c0.662,0.145,1.27,0.404,1.808,0.752
		c0.637-0.054,1.294,0.005,1.946,0.189c0.497,0.14,0.992,0.286,1.484,0.438c0.648,0.2,1.233,0.508,1.74,0.899
		c0.002,0,0.005,0,0.006,0c0.639,0,1.288,0.112,1.921,0.348c0.486,0.182,0.968,0.368,1.448,0.56c0.63,0.252,1.187,0.608,1.66,1.04
		c0.638,0.052,1.278,0.217,1.892,0.507c0.467,0.22,0.931,0.445,1.392,0.675c0.606,0.303,1.133,0.703,1.569,1.172
		c0.631,0.105,1.253,0.321,1.841,0.659c0.448,0.257,0.893,0.52,1.334,0.789c0.579,0.351,1.07,0.793,1.466,1.294
		c0.62,0.156,1.223,0.423,1.78,0.807c0.424,0.293,0.845,0.59,1.262,0.892c0.549,0.398,1.003,0.877,1.357,1.411
		c0.604,0.206,1.183,0.521,1.707,0.949c0.4,0.326,0.796,0.658,1.188,0.994c0.513,0.44,0.925,0.954,1.233,1.513
		c0.587,0.254,1.138,0.616,1.627,1.086c0.369,0.356,0.735,0.716,1.096,1.081c0.477,0.481,0.848,1.028,1.111,1.612
		c0.563,0.301,1.083,0.705,1.53,1.212c0.341,0.386,0.677,0.776,1.008,1.17c0.436,0.517,0.759,1.091,0.974,1.693
		c0.537,0.345,1.022,0.791,1.427,1.332c0.308,0.412,0.611,0.827,0.909,1.246c0.392,0.551,0.668,1.15,0.833,1.767
		c0.507,0.389,0.955,0.873,1.314,1.446c0.272,0.435,0.54,0.874,0.804,1.316c0.345,0.581,0.571,1.199,0.685,1.827
		c0.473,0.428,0.88,0.946,1.191,1.546c0.237,0.457,0.469,0.917,0.694,1.379c0.297,0.606,0.471,1.241,0.533,1.875
		c0.437,0.466,0.8,1.016,1.06,1.64c0.198,0.473,0.39,0.95,0.578,1.428c0.246,0.63,0.368,1.279,0.378,1.918
		c0.398,0.5,0.714,1.078,0.923,1.722c0.159,0.489,0.312,0.982,0.46,1.477c0.195,0.649,0.263,1.307,0.22,1.945
		c0.356,0.531,0.623,1.134,0.779,1.793c0.118,0.502,0.231,1.007,0.337,1.513c0.139,0.661,0.153,1.32,0.058,1.95
		c0.31,0.559,0.528,1.182,0.628,1.852c0.076,0.508,0.147,1.018,0.212,1.529c0.085,0.672,0.045,1.33-0.101,1.952
		c0.264,0.582,0.429,1.221,0.475,1.895c0.035,0.511,0.063,1.024,0.087,1.539c0.024,0.52-0.026,1.027-0.14,1.51
		c0.134,0.476,0.207,0.979,0.207,1.498c0,0.517-0.006,1.032-0.018,1.547c-0.016,0.674-0.153,1.317-0.389,1.91
		c0.175,0.614,0.244,1.27,0.189,1.943c-0.041,0.515-0.089,1.028-0.142,1.539c-0.07,0.673-0.259,1.304-0.543,1.876
		c0.124,0.626,0.14,1.285,0.031,1.952c-0.083,0.512-0.173,1.021-0.269,1.529c-0.125,0.664-0.365,1.277-0.695,1.824
		c0.072,0.635,0.034,1.293-0.13,1.95c-0.125,0.501-0.256,1-0.392,1.497c-0.179,0.653-0.469,1.246-0.844,1.764
		c0.019,0.639-0.072,1.292-0.29,1.933c-0.167,0.493-0.34,0.983-0.518,1.471c-0.233,0.634-0.571,1.2-0.986,1.685
		c-0.033,0.639-0.178,1.283-0.448,1.905c-0.206,0.476-0.418,0.948-0.635,1.418c-0.284,0.615-0.668,1.152-1.123,1.602
		c-0.085,0.634-0.284,1.265-0.604,1.862c-0.244,0.455-0.493,0.907-0.747,1.356c-0.334,0.589-0.76,1.093-1.25,1.504
		c-0.137,0.624-0.386,1.236-0.754,1.805c-0.281,0.434-0.566,0.864-0.856,1.292c-0.38,0.56-0.846,1.027-1.367,1.396
		c-0.187,0.611-0.486,1.199-0.898,1.736c-0.314,0.409-0.634,0.814-0.957,1.215c-0.425,0.526-0.926,0.954-1.476,1.279
		c-0.237,0.593-0.581,1.156-1.036,1.657c-0.347,0.381-0.697,0.759-1.052,1.133c-0.465,0.49-1.001,0.875-1.575,1.155
		c-0.284,0.572-0.674,1.104-1.167,1.566c-0.376,0.352-0.756,0.701-1.142,1.045c-0.503,0.45-1.067,0.79-1.66,1.022
		c-0.329,0.547-0.76,1.045-1.289,1.466c-0.403,0.32-0.809,0.635-1.219,0.946c-0.539,0.409-1.13,0.703-1.742,0.887
		c-0.373,0.519-0.844,0.981-1.407,1.358c-0.426,0.285-0.856,0.566-1.289,0.842c-0.57,0.363-1.183,0.608-1.808,0.742
		c-0.414,0.486-0.919,0.908-1.509,1.237c-0.449,0.251-0.902,0.496-1.358,0.736c-0.597,0.315-1.227,0.509-1.86,0.59
		c-0.452,0.451-0.991,0.829-1.606,1.109c-0.467,0.213-0.938,0.42-1.411,0.621c-0.621,0.265-1.264,0.407-1.901,0.436
		c-0.487,0.412-1.056,0.745-1.691,0.973c-0.485,0.174-0.973,0.343-1.464,0.506c-0.641,0.213-1.291,0.304-1.934,0.278
		c-0.521,0.372-1.116,0.658-1.77,0.833c-0.496,0.133-0.996,0.261-1.497,0.383c-0.659,0.16-1.32,0.193-1.954,0.118
		c-0.549,0.327-1.165,0.563-1.831,0.684c-0.506,0.092-1.013,0.178-1.522,0.258c-0.67,0.105-1.33,0.085-1.956-0.042
		c-0.573,0.281-1.206,0.465-1.879,0.531c-0.512,0.05-1.025,0.094-1.54,0.133c-0.674,0.05-1.328-0.023-1.941-0.201
		c-0.594,0.233-1.239,0.367-1.915,0.378C88.006,153.416,87.624,153.419,87.242,153.419z M81.912,142.198
		c0.16,0,0.322,0.007,0.484,0.021c0.427,0.038,0.855,0.069,1.284,0.096c0.564,0.036,1.102,0.155,1.603,0.346
		c0.512-0.155,1.067-0.249,1.617-0.233l0.34,0.001c0.319,0,0.637-0.003,0.955-0.008c0.566-0.009,1.111,0.067,1.625,0.215
		c0.499-0.196,1.036-0.321,1.599-0.363c0.431-0.032,0.859-0.069,1.286-0.111c0.561-0.054,1.111-0.024,1.636,0.083
		c0.48-0.235,1.003-0.403,1.559-0.491c0.426-0.067,0.851-0.139,1.274-0.216c0.554-0.1,1.104-0.114,1.636-0.051
		c0.459-0.273,0.966-0.484,1.512-0.617c0.419-0.102,0.836-0.209,1.252-0.32c0.543-0.146,1.089-0.207,1.624-0.185
		c0.436-0.311,0.925-0.563,1.46-0.74c0.408-0.136,0.814-0.276,1.217-0.421c0.529-0.189,1.067-0.293,1.601-0.318
		c0.408-0.345,0.874-0.635,1.391-0.855c0.394-0.168,0.786-0.341,1.176-0.518c0.512-0.233,1.041-0.38,1.572-0.449
		c0.379-0.377,0.82-0.705,1.317-0.967c0.379-0.2,0.755-0.404,1.129-0.612c0.492-0.274,1.008-0.465,1.531-0.577
		c0.346-0.407,0.759-0.769,1.233-1.072c0.364-0.231,0.725-0.467,1.082-0.707c0.467-0.313,0.966-0.544,1.478-0.698
		c0.312-0.434,0.694-0.829,1.142-1.169c0.343-0.26,0.683-0.524,1.02-0.792c0.442-0.351,0.92-0.623,1.419-0.818
		c0.277-0.46,0.626-0.886,1.047-1.262c0.32-0.286,0.637-0.577,0.95-0.869c0.411-0.385,0.866-0.696,1.348-0.93
		c0.239-0.48,0.552-0.933,0.941-1.342c0.296-0.312,0.59-0.628,0.879-0.946c0.379-0.418,0.807-0.763,1.268-1.037
		c0.199-0.498,0.474-0.975,0.828-1.414c0.27-0.335,0.537-0.673,0.798-1.014c0.344-0.447,0.743-0.827,1.18-1.137
		c0.158-0.513,0.393-1.01,0.71-1.477c0.242-0.356,0.48-0.714,0.713-1.076c0.306-0.474,0.673-0.885,1.083-1.23
		c0.115-0.524,0.31-1.04,0.588-1.531c0.213-0.375,0.42-0.752,0.624-1.132c0.266-0.497,0.598-0.936,0.979-1.312
		c0.072-0.532,0.223-1.062,0.46-1.574c0.18-0.39,0.356-0.782,0.528-1.177c0.225-0.518,0.52-0.984,0.869-1.391
		c0.028-0.538,0.135-1.08,0.33-1.612c0.148-0.402,0.29-0.806,0.428-1.213c0.181-0.534,0.436-1.021,0.749-1.455
		c-0.016-0.535,0.046-1.081,0.195-1.624c0.113-0.414,0.222-0.829,0.326-1.247c0.136-0.546,0.35-1.053,0.626-1.511
		c-0.06-0.533-0.043-1.083,0.061-1.638c0.08-0.42,0.153-0.841,0.222-1.264c0.091-0.557,0.262-1.08,0.501-1.56
		c-0.104-0.526-0.132-1.075-0.073-1.636c0.045-0.427,0.084-0.855,0.119-1.285c0.045-0.562,0.174-1.098,0.372-1.595
		c-0.147-0.517-0.219-1.064-0.206-1.629c0.01-0.429,0.015-0.859,0.015-1.289c0-0.434,0.05-0.857,0.145-1.261
		c-0.112-0.4-0.182-0.818-0.202-1.25c-0.02-0.432-0.044-0.863-0.073-1.293c-0.038-0.562,0.01-1.11,0.133-1.631
		c-0.22-0.487-0.373-1.016-0.444-1.575c-0.054-0.429-0.114-0.855-0.178-1.28c-0.083-0.557-0.081-1.106-0.001-1.635
		c-0.261-0.469-0.456-0.984-0.572-1.536c-0.089-0.42-0.182-0.838-0.281-1.255c-0.129-0.548-0.171-1.096-0.135-1.63
		c-0.297-0.445-0.533-0.94-0.694-1.479c-0.123-0.412-0.251-0.823-0.384-1.231c-0.175-0.536-0.261-1.08-0.27-1.615
		c-0.333-0.419-0.61-0.894-0.815-1.418c-0.156-0.4-0.317-0.796-0.482-1.191c-0.217-0.518-0.348-1.051-0.401-1.583
		c-0.366-0.39-0.68-0.841-0.928-1.347c-0.188-0.385-0.381-0.767-0.578-1.147c-0.259-0.5-0.434-1.021-0.529-1.547
		c-0.397-0.359-0.747-0.782-1.035-1.266c-0.22-0.37-0.444-0.736-0.672-1.1c-0.298-0.476-0.515-0.982-0.653-1.498
		c-0.424-0.325-0.808-0.718-1.134-1.177c-0.25-0.35-0.502-0.698-0.76-1.042c-0.337-0.452-0.595-0.938-0.775-1.443
		c-0.45-0.29-0.865-0.651-1.228-1.082c-0.277-0.329-0.557-0.655-0.842-0.977c-0.374-0.423-0.67-0.888-0.89-1.376
		c-0.471-0.252-0.913-0.578-1.31-0.977c-0.304-0.307-0.612-0.61-0.923-0.91c-0.405-0.39-0.738-0.829-0.997-1.297
		c-0.492-0.214-0.961-0.504-1.39-0.871c-0.326-0.28-0.656-0.555-0.988-0.827c-0.437-0.357-0.805-0.768-1.102-1.215
		c-0.507-0.173-0.996-0.423-1.452-0.753c-0.349-0.253-0.701-0.502-1.056-0.747c-0.465-0.321-0.864-0.699-1.197-1.12
		c-0.52-0.131-1.029-0.341-1.511-0.633c-0.368-0.223-0.738-0.442-1.111-0.657c-0.489-0.281-0.919-0.626-1.285-1.019
		c-0.528-0.088-1.052-0.255-1.557-0.506c-0.386-0.193-0.774-0.381-1.166-0.566c-0.51-0.24-0.966-0.549-1.362-0.91
		c-0.534-0.044-1.07-0.167-1.594-0.377c-0.4-0.16-0.801-0.315-1.205-0.466c-0.529-0.198-1.01-0.468-1.435-0.795
		c-0.528-0.014-1.082-0.078-1.621-0.244c-0.41-0.126-0.822-0.248-1.236-0.364c-0.542-0.153-1.042-0.382-1.492-0.672
		c-0.532,0.044-1.08,0.01-1.63-0.11c-0.42-0.092-0.841-0.179-1.264-0.262c-0.553-0.108-1.07-0.295-1.542-0.548
		c-0.528,0.088-1.076,0.1-1.634,0.025c-0.427-0.057-0.855-0.11-1.284-0.158c-0.56-0.062-1.091-0.207-1.581-0.42
		c-0.52,0.131-1.069,0.186-1.632,0.157c-0.428-0.023-0.857-0.041-1.287-0.053c-0.566-0.017-1.108-0.118-1.616-0.292
		c-0.508,0.173-1.049,0.272-1.614,0.288c-0.432,0.012-0.862,0.029-1.291,0.051c-0.562,0.03-1.111-0.028-1.631-0.16
		c-0.492,0.213-1.023,0.356-1.583,0.417c-0.429,0.047-0.855,0.098-1.28,0.155c-0.558,0.075-1.108,0.062-1.636-0.027
		c-0.473,0.252-0.991,0.438-1.545,0.545c-0.422,0.081-0.842,0.167-1.261,0.259c-0.551,0.12-1.1,0.152-1.633,0.107
		c-0.451,0.29-0.951,0.518-1.494,0.67c-0.414,0.116-0.826,0.237-1.235,0.362c-0.535,0.164-1.076,0.242-1.608,0.242
		c-0.003,0-0.006,0-0.01,0c-0.424,0.325-0.904,0.593-1.431,0.789c-0.404,0.15-0.806,0.305-1.206,0.464
		c-0.522,0.208-1.057,0.33-1.589,0.373c-0.396,0.359-0.851,0.665-1.361,0.903c-0.388,0.181-0.773,0.367-1.157,0.558
		c-0.504,0.251-1.029,0.416-1.557,0.503c-0.365,0.39-0.795,0.732-1.282,1.012c-0.373,0.213-0.743,0.431-1.11,0.653
		c-0.482,0.291-0.992,0.499-1.511,0.629c-0.332,0.418-0.732,0.795-1.196,1.114c-0.355,0.244-0.707,0.491-1.056,0.743
		c-0.457,0.329-0.948,0.579-1.455,0.75c-0.297,0.444-0.665,0.852-1.101,1.207c-0.335,0.272-0.667,0.549-0.995,0.828
		c-0.429,0.365-0.897,0.653-1.388,0.864c-0.261,0.469-0.595,0.906-1.003,1.297c-0.311,0.297-0.618,0.599-0.922,0.903
		c-0.398,0.399-0.842,0.725-1.316,0.976c-0.222,0.487-0.519,0.95-0.893,1.372c-0.286,0.323-0.568,0.647-0.846,0.976
		c-0.365,0.431-0.781,0.791-1.233,1.08c-0.182,0.506-0.442,0.992-0.781,1.444c-0.258,0.343-0.512,0.69-0.762,1.039
		c-0.328,0.458-0.714,0.852-1.14,1.177c-0.14,0.518-0.358,1.024-0.659,1.502c-0.229,0.363-0.454,0.729-0.674,1.098
		c-0.29,0.485-0.643,0.909-1.042,1.268c-0.097,0.528-0.273,1.051-0.535,1.552c-0.198,0.38-0.392,0.763-0.582,1.149
		c-0.249,0.506-0.566,0.957-0.933,1.347c-0.053,0.535-0.186,1.071-0.406,1.592c-0.167,0.396-0.328,0.793-0.485,1.193
		c-0.206,0.526-0.485,1.001-0.82,1.421c-0.009,0.535-0.097,1.079-0.272,1.615c-0.134,0.41-0.264,0.824-0.389,1.238
		c-0.162,0.539-0.4,1.034-0.697,1.478c0.035,0.535-0.008,1.083-0.139,1.632c-0.099,0.416-0.193,0.835-0.283,1.254
		c-0.117,0.551-0.313,1.065-0.574,1.533c0.079,0.529,0.081,1.08-0.004,1.636c-0.065,0.424-0.124,0.849-0.179,1.277
		c-0.072,0.56-0.225,1.089-0.447,1.576c0.122,0.522,0.169,1.071,0.129,1.633c-0.03,0.429-0.055,0.859-0.075,1.29
		c-0.027,0.563-0.136,1.103-0.318,1.607c0.164,0.511,0.255,1.056,0.261,1.62c0.005,0.431,0.014,0.86,0.029,1.287
		c0.019,0.564-0.047,1.111-0.188,1.629c0.204,0.496,0.339,1.031,0.39,1.594c0.039,0.428,0.083,0.855,0.133,1.279
		c0.065,0.56,0.043,1.111-0.054,1.638c0.243,0.476,0.42,0.997,0.518,1.552c0.074,0.423,0.153,0.846,0.237,1.266
		c0.111,0.553,0.134,1.103,0.08,1.636c0.282,0.455,0.5,0.959,0.643,1.503c0.109,0.417,0.223,0.832,0.341,1.244
		c0.155,0.541,0.224,1.087,0.213,1.621c0.318,0.43,0.578,0.913,0.765,1.444c0.144,0.407,0.291,0.811,0.443,1.214
		c0.198,0.526,0.311,1.062,0.345,1.594c0.352,0.402,0.65,0.862,0.879,1.376c0.175,0.392,0.355,0.782,0.539,1.169
		c0.241,0.507,0.398,1.034,0.475,1.562c0.384,0.373,0.72,0.808,0.99,1.301c0.207,0.377,0.418,0.751,0.633,1.122
		c0.283,0.487,0.482,0.999,0.602,1.52c0.413,0.339,0.783,0.746,1.093,1.215c0.237,0.358,0.478,0.714,0.722,1.065
		c0.322,0.463,0.563,0.958,0.725,1.468c0.441,0.306,0.844,0.681,1.191,1.125c0.265,0.337,0.533,0.672,0.806,1.003
		c0.359,0.435,0.639,0.91,0.842,1.405c0.463,0.268,0.894,0.609,1.277,1.023c0.293,0.316,0.59,0.629,0.89,0.939
		c0.392,0.405,0.71,0.854,0.953,1.331c0.485,0.231,0.944,0.537,1.361,0.919c0.315,0.29,0.635,0.577,0.957,0.859
		c0.425,0.372,0.778,0.795,1.06,1.252c0.5,0.189,0.981,0.456,1.426,0.802c0.34,0.265,0.684,0.526,1.03,0.783
		c0.453,0.336,0.84,0.729,1.157,1.16c0.515,0.149,1.016,0.376,1.488,0.685c0.36,0.235,0.723,0.467,1.089,0.694
		c0.479,0.298,0.897,0.657,1.248,1.062c0.527,0.107,1.047,0.292,1.544,0.562c0.377,0.205,0.756,0.405,1.139,0.602
		c0.502,0.258,0.948,0.582,1.332,0.957c0.533,0.063,1.065,0.204,1.582,0.432c0.393,0.174,0.789,0.343,1.186,0.507
		c0.522,0.215,0.993,0.502,1.406,0.844c0.536,0.018,1.078,0.116,1.611,0.301c0.407,0.141,0.816,0.277,1.226,0.408
		c0.537,0.172,1.029,0.418,1.468,0.724c0.537-0.027,1.082,0.027,1.628,0.167c0.416,0.107,0.834,0.208,1.253,0.305
		c0.548,0.127,1.058,0.332,1.52,0.6c0.531-0.069,1.079-0.062,1.634,0.032c0.423,0.072,0.849,0.139,1.275,0.202
		c0.557,0.081,1.083,0.244,1.566,0.474C81.133,142.24,81.519,142.198,81.912,142.198z"/>
	<path d="M87.242,175.485C38.586,175.485-1,135.9-1,87.242S38.586-1,87.242-1s88.242,39.585,88.242,88.242
		S135.9,175.485,87.242,175.485z M87.242,9.99C44.646,9.99,9.99,44.645,9.99,87.242s34.656,77.253,77.253,77.253
		s77.253-34.655,77.253-77.253S129.84,9.99,87.242,9.99z"/>
	<path d="M92.759,81.704H76.209c-3.035,0-5.495-2.46-5.495-5.495V54.143c0-3.035,2.46-5.495,5.495-5.495h16.549
		c9.114,0,16.528,7.414,16.528,16.528C109.287,74.29,101.873,81.704,92.759,81.704z M81.704,70.714h11.055
		c3.054,0,5.538-2.484,5.538-5.538c0-3.053-2.484-5.538-5.538-5.538H81.704C81.704,59.638,81.704,70.714,81.704,70.714z"/>
	<path d="M98.276,114.803H76.209c-3.035,0-5.495-2.46-5.495-5.495V76.209c0-3.035,2.46-5.495,5.495-5.495h22.066
		c12.155,0,22.044,9.889,22.044,22.044S110.431,114.803,98.276,114.803z M81.704,103.813h16.571c6.096,0,11.055-4.959,11.055-11.055
		c0-6.096-4.959-11.055-11.055-11.055H81.704V103.813z"/>
	<path d="M81.726,98.254H70.693c-3.035,0-5.495-2.46-5.495-5.495c0-3.035,2.46-5.495,5.495-5.495h11.033
		c3.035,0,5.495,2.46,5.495,5.495C87.221,95.793,84.761,98.254,81.726,98.254z"/>
	<path d="M76.209,59.638h-5.516c-3.035,0-5.495-2.46-5.495-5.495s2.46-5.495,5.495-5.495h5.516c3.035,0,5.495,2.46,5.495,5.495
		S79.244,59.638,76.209,59.638z"/>
	<path d="M76.209,114.803h-5.516c-3.035,0-5.495-2.46-5.495-5.495c0-3.035,2.46-5.495,5.495-5.495h5.516
		c3.035,0,5.495,2.46,5.495,5.495C81.704,112.343,79.244,114.803,76.209,114.803z"/>
</g>
<g>
</g>
<g>
</g>
<g>
</g>
<g>
</g>
<g>
</g>
<g>
</g>
<g>
</g>
<g>
</g>
<g>
</g>
<g>
</g>
<g>
</g>
<g>
</g>
<g>
</g>
<g>
</g>
<g>
</g>
</svg>
